<svg xmlns="http://www.w3.org/2000/svg" xmlns:xlink="http://www.w3.org/1999/xlink" width="100" zoomAndPan="magnify" viewBox="0 0 75 37.5" height="50" preserveAspectRatio="xMidYMid meet" version="1.0"><defs><g/><clipPath id="714a636157"><path d="M 0.492188 5.25 L 13 5.25 L 13 26 L 0.492188 26 Z M 0.492188 5.25 " clip-rule="nonzero"/></clipPath><clipPath id="ddb7220596"><path d="M 5 11 L 21.21875 11 L 21.21875 24 L 5 24 Z M 5 11 " clip-rule="nonzero"/></clipPath><clipPath id="a7e1bddf0a"><path d="M 8 14 L 21.21875 14 L 21.21875 34.855469 L 8 34.855469 Z M 8 14 " clip-rule="nonzero"/></clipPath><clipPath id="9bf79fd2c8"><path d="M 0.492188 16 L 16 16 L 16 29 L 0.492188 29 Z M 0.492188 16 " clip-rule="nonzero"/></clipPath><clipPath id="c393407c7d"><path d="M 70 7 L 74.503906 7 L 74.503906 14 L 70 14 Z M 70 7 " clip-rule="nonzero"/></clipPath></defs><g clip-path="url(#714a636157)"><path fill="#f68c11" d="M 11.640625 5.824219 C 12.03125 5.824219 12.347656 6.136719 12.347656 6.523438 C 12.347656 6.910156 12.03125 7.222656 11.640625 7.222656 C 11.25 7.222656 10.933594 6.910156 10.933594 6.523438 C 10.933594 6.136719 11.25 5.824219 11.640625 5.824219 Z M 10.171875 25.90625 C 10.101562 25.898438 10.027344 25.890625 9.945312 25.882812 C 9.863281 25.875 9.777344 25.867188 9.683594 25.855469 C 9.589844 25.84375 9.492188 25.828125 9.386719 25.8125 C 9.335938 25.804688 9.28125 25.796875 9.226562 25.789062 C 9.171875 25.777344 9.117188 25.765625 9.058594 25.753906 C 8.945312 25.730469 8.824219 25.710938 8.703125 25.683594 C 8.578125 25.652344 8.453125 25.617188 8.320312 25.585938 C 8.253906 25.570312 8.1875 25.546875 8.117188 25.527344 C 8.050781 25.507812 7.984375 25.484375 7.914062 25.464844 C 7.355469 25.285156 6.746094 25.03125 6.121094 24.683594 C 6.101562 24.675781 6.082031 24.664062 6.0625 24.652344 C 6.042969 24.640625 6.023438 24.628906 6.003906 24.617188 C 5.96875 24.59375 5.929688 24.570312 5.890625 24.546875 C 5.8125 24.5 5.730469 24.453125 5.652344 24.40625 C 5.578125 24.351562 5.5 24.300781 5.417969 24.25 C 5.378906 24.222656 5.339844 24.195312 5.300781 24.167969 C 5.261719 24.144531 5.226562 24.113281 5.1875 24.085938 C 5.109375 24.027344 5.03125 23.972656 4.953125 23.914062 C 4.914062 23.886719 4.875 23.851562 4.835938 23.820312 C 4.800781 23.792969 4.761719 23.761719 4.722656 23.730469 C 4.683594 23.699219 4.648438 23.667969 4.609375 23.636719 L 4.550781 23.585938 L 4.496094 23.539062 C 4.421875 23.46875 4.34375 23.402344 4.269531 23.335938 L 4.214844 23.285156 C 4.195312 23.265625 4.175781 23.25 4.160156 23.230469 C 4.121094 23.195312 4.085938 23.160156 4.050781 23.121094 C 4.011719 23.085938 3.976562 23.050781 3.9375 23.011719 L 3.882812 22.957031 C 3.867188 22.941406 3.847656 22.921875 3.832031 22.902344 C 3.761719 22.824219 3.691406 22.75 3.621094 22.671875 L 3.566406 22.613281 L 3.515625 22.550781 C 3.480469 22.511719 3.449219 22.46875 3.414062 22.429688 C 3.273438 22.269531 3.148438 22.097656 3.019531 21.925781 C 3 21.902344 2.988281 21.878906 2.972656 21.859375 L 2.925781 21.789062 C 2.894531 21.746094 2.863281 21.703125 2.832031 21.65625 C 2.804688 21.609375 2.773438 21.566406 2.742188 21.519531 C 2.710938 21.476562 2.683594 21.429688 2.65625 21.382812 C 2.1875 20.636719 1.816406 19.804688 1.574219 18.925781 C 1.542969 18.816406 1.515625 18.707031 1.488281 18.59375 C 1.480469 18.566406 1.472656 18.539062 1.46875 18.511719 L 1.449219 18.425781 L 1.414062 18.257812 C 1.402344 18.203125 1.390625 18.148438 1.378906 18.089844 L 1.355469 17.921875 L 1.328125 17.75 C 1.320312 17.695312 1.308594 17.636719 1.304688 17.578125 C 1.292969 17.464844 1.28125 17.351562 1.269531 17.238281 C 1.265625 17.207031 1.261719 17.179688 1.261719 17.152344 L 1.257812 17.066406 L 1.246094 16.890625 L 1.238281 16.71875 C 1.238281 16.691406 1.238281 16.660156 1.238281 16.632812 L 1.238281 16.203125 L 1.253906 15.851562 L 1.257812 15.765625 C 1.261719 15.734375 1.261719 15.703125 1.265625 15.675781 L 1.28125 15.507812 L 1.300781 15.339844 L 1.308594 15.257812 C 1.3125 15.230469 1.316406 15.199219 1.320312 15.171875 C 1.339844 15.058594 1.355469 14.945312 1.375 14.835938 C 1.378906 14.777344 1.394531 14.722656 1.40625 14.664062 L 1.441406 14.5 L 1.472656 14.332031 C 1.488281 14.277344 1.503906 14.222656 1.515625 14.167969 L 1.558594 14.003906 L 1.582031 13.921875 C 1.585938 13.894531 1.59375 13.867188 1.605469 13.839844 C 1.636719 13.730469 1.671875 13.625 1.707031 13.515625 C 1.992188 12.664062 2.394531 11.867188 2.882812 11.167969 C 2.914062 11.125 2.945312 11.082031 2.972656 11.039062 C 3.007812 10.996094 3.039062 10.953125 3.070312 10.910156 C 3.101562 10.871094 3.132812 10.828125 3.164062 10.785156 L 3.214844 10.722656 C 3.230469 10.703125 3.246094 10.679688 3.261719 10.660156 C 3.398438 10.5 3.527344 10.339844 3.667969 10.191406 C 3.703125 10.152344 3.738281 10.117188 3.773438 10.078125 L 3.824219 10.023438 L 3.878906 9.96875 C 3.949219 9.898438 4.023438 9.828125 4.09375 9.757812 C 4.109375 9.738281 4.128906 9.722656 4.148438 9.707031 L 4.203125 9.65625 C 4.238281 9.621094 4.277344 9.589844 4.3125 9.554688 C 4.351562 9.523438 4.386719 9.492188 4.421875 9.457031 C 4.441406 9.441406 4.460938 9.425781 4.476562 9.410156 L 4.535156 9.363281 C 4.609375 9.300781 4.683594 9.242188 4.761719 9.179688 L 4.816406 9.132812 L 4.875 9.09375 C 4.910156 9.0625 4.949219 9.035156 4.988281 9.007812 C 5.027344 8.980469 5.0625 8.953125 5.101562 8.921875 C 5.140625 8.894531 5.175781 8.867188 5.214844 8.84375 C 5.292969 8.789062 5.371094 8.738281 5.445312 8.6875 C 5.484375 8.664062 5.519531 8.636719 5.558594 8.613281 C 5.597656 8.589844 5.636719 8.566406 5.675781 8.542969 C 5.753906 8.5 5.828125 8.453125 5.90625 8.40625 C 5.980469 8.363281 6.058594 8.324219 6.136719 8.285156 C 6.175781 8.261719 6.210938 8.242188 6.25 8.222656 L 6.304688 8.191406 C 6.324219 8.183594 6.34375 8.171875 6.363281 8.164062 C 6.96875 7.863281 7.558594 7.65625 8.085938 7.515625 C 8.152344 7.496094 8.21875 7.480469 8.28125 7.464844 C 8.347656 7.449219 8.410156 7.429688 8.472656 7.417969 C 8.597656 7.394531 8.71875 7.371094 8.832031 7.347656 C 8.949219 7.324219 9.0625 7.3125 9.171875 7.292969 C 9.222656 7.285156 9.277344 7.277344 9.328125 7.269531 C 9.378906 7.265625 9.429688 7.261719 9.476562 7.257812 C 9.574219 7.246094 9.667969 7.238281 9.753906 7.230469 C 9.839844 7.222656 9.921875 7.21875 10 7.214844 C 10.074219 7.210938 10.144531 7.207031 10.210938 7.207031 C 10.273438 7.203125 10.332031 7.203125 10.386719 7.203125 C 10.46875 7.203125 10.535156 7.203125 10.585938 7.203125 C 10.8125 7.542969 11.199219 7.765625 11.640625 7.765625 C 12.335938 7.765625 12.898438 7.210938 12.898438 6.523438 C 12.898438 5.835938 12.335938 5.277344 11.640625 5.277344 C 11.246094 5.277344 10.894531 5.457031 10.664062 5.738281 C 10.605469 5.738281 10.496094 5.746094 10.335938 5.753906 C 10.273438 5.753906 10.207031 5.757812 10.132812 5.761719 C 10.058594 5.769531 9.976562 5.777344 9.886719 5.785156 C 9.800781 5.796875 9.707031 5.804688 9.605469 5.816406 C 9.507812 5.832031 9.398438 5.847656 9.289062 5.863281 C 9.230469 5.871094 9.175781 5.878906 9.117188 5.890625 C 9.058594 5.898438 8.996094 5.910156 8.933594 5.925781 C 8.8125 5.949219 8.683594 5.972656 8.550781 6.003906 C 8.417969 6.035156 8.28125 6.070312 8.136719 6.105469 C 8.066406 6.121094 7.996094 6.148438 7.921875 6.167969 C 7.851562 6.191406 7.777344 6.214844 7.699219 6.234375 C 7.101562 6.425781 6.445312 6.699219 5.769531 7.070312 C 5.75 7.082031 5.730469 7.09375 5.707031 7.105469 C 5.6875 7.117188 5.667969 7.132812 5.644531 7.144531 C 5.605469 7.167969 5.5625 7.195312 5.519531 7.21875 C 5.4375 7.269531 5.351562 7.320312 5.265625 7.371094 C 5.183594 7.425781 5.097656 7.484375 5.015625 7.539062 C 4.972656 7.566406 4.929688 7.597656 4.886719 7.625 C 4.84375 7.652344 4.804688 7.683594 4.761719 7.714844 C 4.679688 7.777344 4.597656 7.835938 4.511719 7.898438 C 4.46875 7.929688 4.429688 7.964844 4.386719 7.996094 C 4.347656 8.03125 4.304688 8.0625 4.265625 8.097656 C 4.222656 8.132812 4.179688 8.164062 4.140625 8.199219 L 4.078125 8.25 L 4.015625 8.304688 C 3.9375 8.375 3.855469 8.449219 3.773438 8.519531 L 3.714844 8.574219 C 3.695312 8.59375 3.675781 8.613281 3.65625 8.632812 C 3.617188 8.671875 3.578125 8.710938 3.535156 8.75 C 3.496094 8.789062 3.457031 8.828125 3.417969 8.867188 L 3.359375 8.925781 C 3.339844 8.945312 3.320312 8.964844 3.300781 8.988281 C 3.226562 9.070312 3.148438 9.152344 3.074219 9.234375 L 3.015625 9.296875 L 2.960938 9.363281 C 2.925781 9.40625 2.886719 9.449219 2.851562 9.492188 C 2.703125 9.664062 2.566406 9.851562 2.425781 10.039062 C 2.40625 10.058594 2.390625 10.085938 2.375 10.109375 L 2.324219 10.179688 C 2.292969 10.230469 2.257812 10.277344 2.226562 10.324219 C 2.191406 10.375 2.160156 10.421875 2.125 10.472656 C 2.09375 10.519531 2.0625 10.570312 2.03125 10.621094 C 1.527344 11.421875 1.128906 12.316406 0.863281 13.265625 C 0.832031 13.382812 0.800781 13.503906 0.769531 13.621094 C 0.757812 13.652344 0.753906 13.683594 0.746094 13.710938 L 0.726562 13.804688 L 0.691406 13.984375 C 0.675781 14.046875 0.664062 14.105469 0.652344 14.167969 L 0.59375 14.53125 C 0.585938 14.59375 0.574219 14.65625 0.570312 14.71875 C 0.554688 14.839844 0.542969 14.964844 0.53125 15.085938 C 0.527344 15.117188 0.523438 15.148438 0.523438 15.179688 L 0.515625 15.273438 L 0.507812 15.464844 L 0.496094 15.652344 C 0.492188 15.683594 0.492188 15.714844 0.496094 15.746094 L 0.492188 15.835938 L 0.492188 16.203125 L 0.511719 16.574219 L 0.515625 16.664062 C 0.519531 16.695312 0.519531 16.726562 0.523438 16.757812 L 0.542969 16.941406 L 0.558594 17.128906 L 0.570312 17.21875 C 0.574219 17.25 0.578125 17.28125 0.582031 17.3125 C 0.601562 17.433594 0.621094 17.554688 0.636719 17.675781 C 0.644531 17.738281 0.660156 17.796875 0.671875 17.859375 L 0.710938 18.039062 L 0.746094 18.21875 C 0.761719 18.277344 0.777344 18.335938 0.792969 18.398438 L 0.835938 18.574219 L 0.859375 18.664062 C 0.867188 18.691406 0.875 18.722656 0.886719 18.75 C 0.921875 18.867188 0.957031 18.984375 0.996094 19.097656 C 1.300781 20.019531 1.734375 20.878906 2.261719 21.636719 C 2.292969 21.683594 2.328125 21.730469 2.359375 21.777344 C 2.394531 21.824219 2.429688 21.867188 2.460938 21.914062 C 2.496094 21.960938 2.53125 22.003906 2.566406 22.050781 L 2.617188 22.117188 C 2.632812 22.140625 2.652344 22.164062 2.667969 22.183594 C 2.8125 22.359375 2.953125 22.53125 3.105469 22.691406 C 3.144531 22.734375 3.179688 22.773438 3.21875 22.8125 L 3.273438 22.875 L 3.332031 22.933594 C 3.410156 23.011719 3.488281 23.085938 3.5625 23.160156 C 3.582031 23.179688 3.601562 23.199219 3.621094 23.21875 L 3.683594 23.273438 C 3.722656 23.308594 3.761719 23.34375 3.800781 23.378906 C 3.839844 23.414062 3.878906 23.449219 3.917969 23.484375 C 3.941406 23.503906 3.957031 23.523438 3.980469 23.539062 L 4.039062 23.589844 C 4.121094 23.65625 4.203125 23.722656 4.28125 23.785156 L 4.34375 23.835938 L 4.40625 23.882812 C 4.445312 23.914062 4.488281 23.941406 4.527344 23.972656 C 4.570312 24.003906 4.609375 24.035156 4.652344 24.0625 C 4.691406 24.09375 4.730469 24.125 4.773438 24.152344 C 4.859375 24.207031 4.941406 24.261719 5.023438 24.316406 C 5.0625 24.34375 5.105469 24.375 5.144531 24.398438 C 5.1875 24.425781 5.230469 24.449219 5.269531 24.472656 C 5.355469 24.523438 5.4375 24.574219 5.519531 24.625 C 5.601562 24.671875 5.683594 24.714844 5.765625 24.757812 C 5.808594 24.78125 5.847656 24.800781 5.890625 24.824219 C 5.910156 24.835938 5.929688 24.847656 5.949219 24.855469 C 5.972656 24.867188 5.992188 24.878906 6.011719 24.886719 C 6.667969 25.214844 7.300781 25.4375 7.875 25.59375 C 7.945312 25.613281 8.015625 25.628906 8.085938 25.648438 C 8.15625 25.664062 8.222656 25.683594 8.289062 25.695312 C 8.425781 25.722656 8.558594 25.75 8.683594 25.777344 C 8.808594 25.800781 8.929688 25.816406 9.046875 25.832031 C 9.105469 25.84375 9.160156 25.851562 9.214844 25.859375 C 9.273438 25.863281 9.324219 25.871094 9.378906 25.875 C 9.484375 25.886719 9.582031 25.894531 9.675781 25.90625 C 9.773438 25.914062 9.859375 25.914062 9.941406 25.921875 C 10.023438 25.925781 10.101562 25.929688 10.171875 25.933594 C 10.238281 25.933594 10.304688 25.933594 10.359375 25.933594 C 10.585938 25.933594 10.707031 25.933594 10.707031 25.933594 C 10.707031 25.933594 10.585938 25.929688 10.359375 25.917969 C 10.304688 25.914062 10.242188 25.914062 10.171875 25.90625 " fill-opacity="1" fill-rule="nonzero"/></g><path fill="#38b6ff" d="M 16.832031 9.894531 C 16.832031 10.277344 16.515625 10.589844 16.125 10.589844 C 15.734375 10.589844 15.417969 10.277344 15.417969 9.894531 C 15.417969 9.507812 15.734375 9.195312 16.125 9.195312 C 16.515625 9.195312 16.832031 9.507812 16.832031 9.894531 Z M 11.257812 8.394531 C 11.214844 8.402344 11.175781 8.40625 11.132812 8.414062 C 11.089844 8.421875 11.046875 8.429688 11.007812 8.4375 C 10.921875 8.449219 10.835938 8.464844 10.753906 8.480469 C 10.667969 8.5 10.582031 8.515625 10.496094 8.535156 C 10.453125 8.542969 10.410156 8.554688 10.367188 8.5625 C 10.324219 8.574219 10.28125 8.585938 10.234375 8.597656 C 10.148438 8.621094 10.0625 8.644531 9.972656 8.667969 C 9.929688 8.679688 9.886719 8.691406 9.84375 8.707031 C 9.800781 8.722656 9.753906 8.734375 9.710938 8.75 C 9.667969 8.761719 9.621094 8.777344 9.578125 8.792969 L 9.511719 8.8125 L 9.445312 8.835938 C 9.359375 8.871094 9.269531 8.902344 9.179688 8.9375 L 9.113281 8.960938 C 9.089844 8.96875 9.070312 8.980469 9.046875 8.988281 C 9.003906 9.007812 8.960938 9.027344 8.914062 9.046875 C 8.871094 9.0625 8.828125 9.082031 8.78125 9.101562 L 8.714844 9.128906 C 8.695312 9.140625 8.671875 9.152344 8.648438 9.164062 C 8.5625 9.203125 8.472656 9.246094 8.386719 9.289062 L 8.253906 9.359375 C 8.210938 9.382812 8.167969 9.40625 8.125 9.429688 C 7.949219 9.519531 7.777344 9.628906 7.605469 9.734375 C 7.519531 9.785156 7.4375 9.847656 7.351562 9.902344 C 7.308594 9.929688 7.265625 9.960938 7.226562 9.988281 C 7.183594 10.019531 7.144531 10.050781 7.101562 10.078125 C 6.4375 10.566406 5.828125 11.160156 5.308594 11.839844 C 5.246094 11.925781 5.183594 12.011719 5.117188 12.097656 C 5.058594 12.183594 5 12.273438 4.941406 12.363281 L 4.851562 12.5 L 4.6875 12.773438 C 4.660156 12.820312 4.632812 12.867188 4.609375 12.914062 C 4.558594 13.011719 4.507812 13.105469 4.457031 13.199219 C 4.445312 13.222656 4.433594 13.246094 4.421875 13.273438 L 4.316406 13.496094 L 4.25 13.644531 C 4.234375 13.671875 4.226562 13.695312 4.21875 13.71875 L 4.074219 14.074219 C 4.066406 14.097656 4.070312 14.085938 4.066406 14.09375 L 4.0625 14.101562 L 4.058594 14.121094 L 4.042969 14.160156 L 4.019531 14.234375 L 3.964844 14.386719 C 3.949219 14.4375 3.929688 14.488281 3.914062 14.539062 L 3.871094 14.695312 L 3.828125 14.847656 L 3.804688 14.925781 C 3.796875 14.949219 3.792969 14.976562 3.785156 15.003906 C 3.761719 15.105469 3.738281 15.210938 3.714844 15.3125 C 3.699219 15.367188 3.691406 15.417969 3.683594 15.46875 L 3.65625 15.625 L 3.625 15.785156 L 3.605469 15.941406 C 3.59375 16.046875 3.578125 16.148438 3.566406 16.253906 C 3.558594 16.359375 3.550781 16.464844 3.542969 16.566406 C 3.492188 17.402344 3.566406 18.230469 3.746094 19 C 3.757812 19.046875 3.769531 19.09375 3.78125 19.144531 C 3.792969 19.191406 3.804688 19.238281 3.820312 19.285156 C 3.847656 19.378906 3.871094 19.472656 3.898438 19.566406 C 3.960938 19.75 4.015625 19.933594 4.085938 20.109375 C 4.105469 20.15625 4.121094 20.199219 4.136719 20.242188 L 4.191406 20.375 C 4.230469 20.460938 4.265625 20.546875 4.304688 20.628906 C 4.3125 20.652344 4.320312 20.671875 4.332031 20.695312 L 4.363281 20.753906 C 4.382812 20.796875 4.402344 20.839844 4.421875 20.878906 C 4.445312 20.917969 4.464844 20.960938 4.484375 21 C 4.496094 21.019531 4.503906 21.042969 4.515625 21.0625 L 4.546875 21.121094 C 4.59375 21.199219 4.636719 21.277344 4.679688 21.355469 L 4.710938 21.414062 L 4.746094 21.46875 C 4.769531 21.507812 4.792969 21.542969 4.816406 21.582031 C 4.839844 21.617188 4.863281 21.65625 4.886719 21.691406 C 4.910156 21.730469 4.929688 21.765625 4.957031 21.800781 C 5.003906 21.871094 5.054688 21.941406 5.101562 22.011719 C 5.125 22.046875 5.148438 22.082031 5.175781 22.117188 C 5.199219 22.148438 5.226562 22.183594 5.25 22.214844 C 5.300781 22.28125 5.351562 22.347656 5.402344 22.410156 C 5.453125 22.472656 5.503906 22.535156 5.558594 22.597656 C 5.582031 22.628906 5.609375 22.65625 5.632812 22.6875 C 5.660156 22.71875 5.683594 22.75 5.710938 22.777344 C 6.132812 23.242188 6.566406 23.621094 6.976562 23.921875 C 7.027344 23.960938 7.078125 23.996094 7.128906 24.03125 C 7.179688 24.066406 7.226562 24.105469 7.277344 24.136719 C 7.375 24.199219 7.472656 24.261719 7.5625 24.320312 C 7.65625 24.378906 7.75 24.429688 7.835938 24.480469 C 7.878906 24.503906 7.921875 24.53125 7.964844 24.554688 C 8.007812 24.574219 8.046875 24.597656 8.089844 24.617188 C 8.167969 24.660156 8.246094 24.699219 8.316406 24.734375 C 8.390625 24.769531 8.460938 24.800781 8.523438 24.828125 C 8.589844 24.859375 8.648438 24.886719 8.703125 24.910156 C 8.757812 24.933594 8.808594 24.953125 8.855469 24.96875 C 9.035156 25.042969 9.132812 25.078125 9.132812 25.078125 C 9.132812 25.078125 9.039062 25.035156 8.859375 24.953125 C 8.816406 24.933594 8.765625 24.914062 8.714844 24.886719 C 8.660156 24.859375 8.601562 24.828125 8.539062 24.796875 C 8.480469 24.765625 8.410156 24.730469 8.339844 24.691406 C 8.273438 24.652344 8.199219 24.609375 8.121094 24.5625 C 8.082031 24.539062 8.042969 24.515625 8 24.492188 C 7.960938 24.46875 7.917969 24.441406 7.878906 24.414062 C 7.796875 24.359375 7.707031 24.304688 7.617188 24.242188 C 7.53125 24.175781 7.4375 24.109375 7.34375 24.042969 C 7.296875 24.007812 7.25 23.96875 7.203125 23.933594 C 7.15625 23.894531 7.109375 23.855469 7.0625 23.816406 C 6.675781 23.496094 6.273438 23.105469 5.890625 22.628906 C 5.867188 22.601562 5.84375 22.570312 5.820312 22.539062 C 5.796875 22.507812 5.773438 22.476562 5.75 22.445312 C 5.703125 22.382812 5.65625 22.320312 5.609375 22.257812 C 5.5625 22.191406 5.519531 22.125 5.472656 22.058594 C 5.449219 22.027344 5.429688 21.992188 5.40625 21.960938 C 5.382812 21.925781 5.363281 21.890625 5.339844 21.855469 C 5.296875 21.785156 5.253906 21.714844 5.210938 21.644531 C 5.1875 21.609375 5.167969 21.574219 5.148438 21.535156 C 5.128906 21.5 5.109375 21.460938 5.089844 21.425781 C 5.070312 21.390625 5.046875 21.351562 5.027344 21.316406 L 4.996094 21.257812 L 4.96875 21.199219 C 4.933594 21.125 4.894531 21.046875 4.855469 20.96875 L 4.828125 20.910156 C 4.820312 20.890625 4.8125 20.871094 4.800781 20.851562 C 4.785156 20.8125 4.769531 20.769531 4.75 20.730469 C 4.734375 20.691406 4.714844 20.648438 4.699219 20.609375 L 4.671875 20.546875 C 4.664062 20.527344 4.65625 20.507812 4.648438 20.488281 C 4.617188 20.402344 4.585938 20.320312 4.554688 20.234375 L 4.53125 20.171875 L 4.511719 20.109375 C 4.5 20.066406 4.484375 20.023438 4.472656 19.980469 C 4.410156 19.808594 4.371094 19.632812 4.320312 19.453125 C 4.296875 19.363281 4.28125 19.273438 4.261719 19.183594 C 4.25 19.136719 4.242188 19.089844 4.230469 19.046875 C 4.222656 19 4.214844 18.953125 4.207031 18.90625 C 4.078125 18.171875 4.054688 17.394531 4.144531 16.621094 C 4.160156 16.523438 4.171875 16.425781 4.183594 16.328125 C 4.199219 16.234375 4.21875 16.136719 4.238281 16.042969 L 4.265625 15.898438 L 4.296875 15.753906 L 4.332031 15.609375 C 4.34375 15.5625 4.355469 15.515625 4.367188 15.46875 C 4.394531 15.375 4.425781 15.28125 4.453125 15.1875 C 4.457031 15.164062 4.464844 15.136719 4.472656 15.113281 L 4.496094 15.046875 L 4.546875 14.90625 L 4.59375 14.765625 C 4.609375 14.71875 4.632812 14.675781 4.648438 14.628906 L 4.757812 14.363281 L 4.886719 14.085938 L 4.921875 14.015625 C 4.929688 13.992188 4.941406 13.96875 4.953125 13.949219 L 5.019531 13.820312 L 5.089844 13.695312 L 5.121094 13.632812 C 5.132812 13.609375 5.148438 13.589844 5.160156 13.570312 C 5.210938 13.484375 5.261719 13.402344 5.3125 13.316406 C 5.335938 13.277344 5.363281 13.234375 5.390625 13.195312 L 5.554688 12.953125 L 5.640625 12.835938 C 5.699219 12.757812 5.753906 12.679688 5.816406 12.605469 C 5.875 12.53125 5.9375 12.457031 6 12.382812 C 6.5 11.796875 7.074219 11.296875 7.6875 10.902344 C 7.722656 10.875 7.761719 10.851562 7.800781 10.824219 C 7.839844 10.800781 7.878906 10.777344 7.917969 10.757812 C 7.996094 10.710938 8.070312 10.664062 8.148438 10.617188 C 8.308594 10.535156 8.460938 10.449219 8.621094 10.378906 C 8.660156 10.359375 8.699219 10.339844 8.738281 10.320312 L 8.796875 10.292969 L 8.859375 10.269531 C 8.9375 10.234375 9.015625 10.203125 9.097656 10.167969 C 9.117188 10.160156 9.136719 10.152344 9.15625 10.144531 L 9.214844 10.121094 C 9.253906 10.109375 9.292969 10.09375 9.332031 10.078125 C 9.375 10.066406 9.414062 10.050781 9.453125 10.035156 C 9.472656 10.027344 9.492188 10.019531 9.511719 10.015625 L 9.570312 9.996094 C 9.648438 9.972656 9.730469 9.949219 9.808594 9.921875 L 9.925781 9.890625 C 9.964844 9.878906 10.003906 9.871094 10.042969 9.859375 C 10.082031 9.847656 10.121094 9.839844 10.160156 9.828125 C 10.199219 9.820312 10.234375 9.808594 10.273438 9.800781 C 10.351562 9.785156 10.429688 9.769531 10.507812 9.753906 C 10.542969 9.746094 10.582031 9.734375 10.621094 9.730469 C 10.65625 9.722656 10.695312 9.71875 10.734375 9.710938 C 10.808594 9.699219 10.882812 9.6875 10.957031 9.675781 C 11.03125 9.667969 11.105469 9.660156 11.179688 9.652344 C 11.214844 9.644531 11.253906 9.640625 11.289062 9.636719 C 11.324219 9.632812 11.359375 9.628906 11.398438 9.628906 C 11.972656 9.582031 12.5 9.605469 12.960938 9.660156 C 13.019531 9.667969 13.074219 9.675781 13.132812 9.683594 C 13.1875 9.691406 13.242188 9.695312 13.296875 9.707031 C 13.402344 9.726562 13.503906 9.742188 13.601562 9.761719 C 13.703125 9.78125 13.796875 9.808594 13.882812 9.828125 C 13.929688 9.835938 13.972656 9.847656 14.015625 9.859375 C 14.058594 9.871094 14.097656 9.882812 14.136719 9.894531 C 14.21875 9.917969 14.292969 9.9375 14.363281 9.960938 C 14.433594 9.980469 14.5 10.003906 14.5625 10.027344 C 14.621094 10.046875 14.679688 10.066406 14.730469 10.082031 C 14.78125 10.101562 14.828125 10.121094 14.867188 10.136719 C 14.878906 10.140625 14.886719 10.144531 14.894531 10.148438 C 15.011719 10.714844 15.519531 11.136719 16.125 11.136719 C 16.820312 11.136719 17.386719 10.582031 17.386719 9.894531 C 17.386719 9.207031 16.820312 8.648438 16.125 8.648438 C 15.898438 8.648438 15.683594 8.710938 15.496094 8.816406 C 15.457031 8.800781 15.414062 8.789062 15.363281 8.769531 C 15.316406 8.753906 15.261719 8.734375 15.199219 8.714844 C 15.136719 8.699219 15.066406 8.679688 14.992188 8.660156 C 14.921875 8.636719 14.839844 8.613281 14.757812 8.59375 C 14.671875 8.574219 14.582031 8.550781 14.484375 8.53125 C 14.4375 8.519531 14.386719 8.507812 14.335938 8.496094 C 14.285156 8.484375 14.234375 8.476562 14.179688 8.46875 C 14.074219 8.449219 13.960938 8.425781 13.84375 8.410156 C 13.726562 8.394531 13.605469 8.378906 13.476562 8.363281 C 13.414062 8.355469 13.351562 8.351562 13.285156 8.347656 C 13.21875 8.339844 13.152344 8.335938 13.082031 8.332031 C 12.539062 8.296875 11.917969 8.308594 11.257812 8.394531 " fill-opacity="1" fill-rule="nonzero"/><g clip-path="url(#ddb7220596)"><path fill="#80cc28" d="M 19.804688 16.179688 C 19.414062 16.179688 19.097656 15.867188 19.097656 15.480469 C 19.097656 15.09375 19.414062 14.78125 19.804688 14.78125 C 20.195312 14.78125 20.507812 15.09375 20.507812 15.480469 C 20.507812 15.867188 20.195312 16.179688 19.804688 16.179688 Z M 19.816406 14.234375 C 19.796875 14.207031 19.769531 14.175781 19.738281 14.140625 C 19.710938 14.105469 19.675781 14.066406 19.640625 14.023438 C 19.601562 13.984375 19.558594 13.9375 19.515625 13.890625 C 19.46875 13.839844 19.421875 13.789062 19.367188 13.734375 C 19.3125 13.679688 19.257812 13.621094 19.195312 13.5625 C 19.164062 13.535156 19.132812 13.503906 19.101562 13.472656 C 19.066406 13.441406 19.03125 13.410156 18.996094 13.378906 C 18.925781 13.316406 18.851562 13.25 18.773438 13.183594 C 18.691406 13.121094 18.609375 13.050781 18.523438 12.984375 C 18.480469 12.949219 18.433594 12.917969 18.386719 12.882812 C 18.339844 12.847656 18.292969 12.8125 18.242188 12.78125 C 17.851562 12.507812 17.386719 12.234375 16.851562 12 C 16.320312 11.765625 15.710938 11.582031 15.058594 11.464844 L 14.996094 11.453125 C 14.976562 11.449219 14.957031 11.445312 14.9375 11.441406 C 14.894531 11.4375 14.851562 11.429688 14.8125 11.425781 C 14.769531 11.417969 14.726562 11.414062 14.6875 11.40625 L 14.625 11.398438 C 14.601562 11.394531 14.582031 11.394531 14.558594 11.390625 C 14.476562 11.382812 14.390625 11.375 14.304688 11.367188 L 14.242188 11.359375 L 14.175781 11.359375 C 14.132812 11.355469 14.089844 11.355469 14.046875 11.351562 C 13.871094 11.339844 13.695312 11.34375 13.519531 11.34375 C 13.433594 11.34375 13.34375 11.351562 13.253906 11.355469 C 13.210938 11.355469 13.164062 11.359375 13.121094 11.359375 C 13.074219 11.363281 13.03125 11.371094 12.984375 11.375 C 12.269531 11.433594 11.539062 11.601562 10.84375 11.871094 C 10.757812 11.90625 10.667969 11.941406 10.582031 11.976562 C 10.496094 12.011719 10.414062 12.054688 10.328125 12.09375 L 10.199219 12.152344 L 9.949219 12.285156 C 9.910156 12.304688 9.867188 12.328125 9.828125 12.351562 C 9.746094 12.398438 9.664062 12.449219 9.582031 12.496094 C 9.5625 12.507812 9.542969 12.519531 9.523438 12.53125 L 9.464844 12.570312 L 9.34375 12.652344 L 9.222656 12.730469 C 9.203125 12.746094 9.183594 12.757812 9.164062 12.769531 L 9.113281 12.8125 L 8.890625 12.976562 L 8.671875 13.152344 C 8.636719 13.183594 8.597656 13.210938 8.5625 13.246094 L 8.460938 13.339844 L 8.355469 13.433594 L 8.304688 13.480469 C 8.289062 13.496094 8.273438 13.511719 8.253906 13.527344 C 8.1875 13.59375 8.125 13.660156 8.058594 13.726562 C 8.023438 13.757812 7.996094 13.792969 7.964844 13.828125 L 7.871094 13.933594 L 7.777344 14.035156 L 7.691406 14.140625 C 7.632812 14.214844 7.574219 14.285156 7.515625 14.355469 C 7.464844 14.429688 7.410156 14.503906 7.355469 14.578125 C 6.933594 15.175781 6.609375 15.816406 6.386719 16.46875 C 6.375 16.507812 6.359375 16.550781 6.34375 16.589844 C 6.332031 16.632812 6.320312 16.671875 6.308594 16.714844 C 6.285156 16.792969 6.257812 16.875 6.238281 16.957031 C 6.199219 17.121094 6.15625 17.28125 6.128906 17.445312 C 6.121094 17.484375 6.113281 17.523438 6.105469 17.5625 L 6.09375 17.625 L 6.082031 17.683594 C 6.070312 17.765625 6.058594 17.84375 6.050781 17.925781 C 6.046875 17.945312 6.042969 17.964844 6.039062 17.984375 L 6.035156 18.042969 C 6.03125 18.082031 6.027344 18.121094 6.023438 18.160156 C 6.019531 18.203125 6.015625 18.242188 6.011719 18.28125 C 6.011719 18.300781 6.007812 18.320312 6.007812 18.339844 L 6.003906 18.398438 C 6 18.472656 5.996094 18.550781 5.992188 18.628906 L 5.992188 18.742188 C 5.992188 18.78125 5.992188 18.820312 5.992188 18.855469 C 5.992188 18.894531 5.992188 18.933594 5.992188 18.96875 C 5.992188 19.007812 5.992188 19.046875 5.992188 19.082031 C 5.996094 19.15625 6 19.230469 6.003906 19.304688 C 6.007812 19.339844 6.007812 19.375 6.011719 19.414062 C 6.015625 19.449219 6.019531 19.484375 6.019531 19.519531 C 6.027344 19.589844 6.035156 19.664062 6.042969 19.730469 C 6.050781 19.800781 6.0625 19.871094 6.070312 19.9375 C 6.078125 19.972656 6.082031 20.007812 6.085938 20.042969 C 6.09375 20.074219 6.097656 20.109375 6.105469 20.140625 C 6.199219 20.671875 6.347656 21.148438 6.511719 21.554688 C 6.53125 21.601562 6.550781 21.652344 6.574219 21.703125 C 6.59375 21.75 6.613281 21.800781 6.636719 21.84375 C 6.679688 21.9375 6.722656 22.023438 6.761719 22.109375 C 6.804688 22.195312 6.847656 22.273438 6.890625 22.351562 C 6.910156 22.386719 6.929688 22.425781 6.949219 22.460938 C 6.972656 22.496094 6.992188 22.53125 7.011719 22.5625 C 7.054688 22.628906 7.09375 22.691406 7.128906 22.753906 C 7.164062 22.8125 7.203125 22.863281 7.238281 22.914062 C 7.273438 22.964844 7.304688 23.011719 7.332031 23.054688 C 7.359375 23.097656 7.390625 23.132812 7.414062 23.167969 C 7.515625 23.300781 7.570312 23.371094 7.570312 23.371094 C 7.570312 23.371094 7.519531 23.296875 7.429688 23.15625 C 7.40625 23.121094 7.378906 23.082031 7.351562 23.039062 C 7.328125 22.996094 7.300781 22.949219 7.269531 22.894531 C 7.238281 22.84375 7.203125 22.789062 7.171875 22.726562 C 7.140625 22.667969 7.105469 22.601562 7.070312 22.535156 C 7.050781 22.5 7.03125 22.464844 7.015625 22.425781 C 6.996094 22.390625 6.980469 22.351562 6.960938 22.3125 C 6.925781 22.238281 6.886719 22.15625 6.851562 22.070312 C 6.816406 21.984375 6.78125 21.894531 6.742188 21.800781 C 6.722656 21.753906 6.707031 21.707031 6.691406 21.65625 C 6.675781 21.609375 6.65625 21.558594 6.640625 21.507812 C 6.507812 21.101562 6.394531 20.628906 6.335938 20.109375 C 6.328125 20.074219 6.328125 20.042969 6.324219 20.011719 C 6.320312 19.976562 6.320312 19.945312 6.316406 19.910156 C 6.3125 19.84375 6.304688 19.777344 6.300781 19.710938 C 6.296875 19.640625 6.296875 19.574219 6.292969 19.503906 C 6.292969 19.46875 6.292969 19.433594 6.289062 19.398438 C 6.289062 19.367188 6.289062 19.332031 6.289062 19.296875 C 6.292969 19.226562 6.292969 19.152344 6.292969 19.082031 C 6.292969 19.046875 6.296875 19.011719 6.300781 18.976562 C 6.300781 18.9375 6.304688 18.902344 6.304688 18.867188 C 6.308594 18.832031 6.3125 18.792969 6.3125 18.757812 L 6.316406 18.703125 L 6.324219 18.648438 C 6.332031 18.574219 6.339844 18.503906 6.347656 18.429688 L 6.355469 18.371094 C 6.355469 18.355469 6.359375 18.335938 6.363281 18.316406 C 6.367188 18.28125 6.375 18.242188 6.378906 18.207031 C 6.386719 18.167969 6.394531 18.132812 6.398438 18.09375 L 6.40625 18.039062 C 6.410156 18.019531 6.414062 18 6.417969 17.980469 C 6.433594 17.90625 6.449219 17.832031 6.46875 17.757812 L 6.480469 17.699219 L 6.492188 17.644531 C 6.503906 17.605469 6.511719 17.570312 6.523438 17.53125 C 6.558594 17.378906 6.609375 17.230469 6.65625 17.082031 C 6.683594 17.003906 6.710938 16.929688 6.738281 16.855469 C 6.753906 16.816406 6.765625 16.78125 6.78125 16.742188 C 6.796875 16.707031 6.8125 16.667969 6.828125 16.632812 C 7.074219 16.035156 7.417969 15.460938 7.839844 14.9375 C 7.894531 14.871094 7.945312 14.808594 8 14.742188 C 8.054688 14.679688 8.117188 14.617188 8.171875 14.554688 L 8.257812 14.464844 L 8.347656 14.375 L 8.441406 14.285156 C 8.472656 14.257812 8.5 14.226562 8.53125 14.199219 C 8.597656 14.144531 8.660156 14.085938 8.722656 14.03125 C 8.738281 14.015625 8.753906 14.003906 8.769531 13.988281 L 8.921875 13.871094 L 9.019531 13.789062 C 9.054688 13.765625 9.089844 13.742188 9.125 13.714844 L 9.332031 13.566406 L 9.546875 13.425781 L 9.605469 13.390625 C 9.625 13.378906 9.640625 13.367188 9.660156 13.355469 L 9.765625 13.296875 L 9.875 13.234375 L 9.925781 13.203125 C 9.945312 13.195312 9.964844 13.183594 9.984375 13.175781 C 10.058594 13.136719 10.132812 13.097656 10.207031 13.0625 C 10.246094 13.039062 10.285156 13.023438 10.324219 13.007812 L 10.4375 12.957031 L 10.554688 12.90625 L 10.667969 12.859375 C 10.746094 12.828125 10.824219 12.796875 10.902344 12.769531 C 10.984375 12.742188 11.0625 12.71875 11.140625 12.691406 C 11.773438 12.492188 12.417969 12.386719 13.046875 12.375 C 13.085938 12.375 13.121094 12.375 13.160156 12.371094 C 13.199219 12.375 13.238281 12.375 13.277344 12.375 C 13.355469 12.375 13.433594 12.375 13.507812 12.378906 C 13.664062 12.390625 13.8125 12.394531 13.964844 12.417969 C 14 12.421875 14.039062 12.425781 14.074219 12.429688 L 14.128906 12.433594 L 14.183594 12.445312 C 14.257812 12.457031 14.332031 12.46875 14.402344 12.480469 C 14.421875 12.480469 14.4375 12.484375 14.457031 12.488281 L 14.511719 12.5 C 14.546875 12.507812 14.582031 12.515625 14.617188 12.519531 C 14.652344 12.527344 14.6875 12.535156 14.722656 12.542969 C 14.738281 12.546875 14.757812 12.550781 14.773438 12.554688 L 14.824219 12.566406 C 14.894531 12.585938 14.960938 12.601562 15.03125 12.621094 L 15.082031 12.632812 L 15.132812 12.648438 C 15.164062 12.660156 15.195312 12.671875 15.230469 12.679688 C 15.261719 12.691406 15.296875 12.699219 15.328125 12.710938 C 15.359375 12.71875 15.394531 12.730469 15.425781 12.742188 C 15.488281 12.765625 15.550781 12.789062 15.613281 12.8125 C 15.644531 12.824219 15.675781 12.832031 15.707031 12.84375 C 15.738281 12.859375 15.769531 12.871094 15.796875 12.882812 C 15.859375 12.910156 15.917969 12.933594 15.976562 12.957031 C 16.035156 12.984375 16.089844 13.011719 16.148438 13.039062 C 16.175781 13.054688 16.203125 13.066406 16.234375 13.078125 C 16.261719 13.09375 16.289062 13.105469 16.316406 13.121094 C 16.75 13.347656 17.125 13.597656 17.429688 13.84375 C 17.46875 13.875 17.507812 13.90625 17.542969 13.9375 C 17.582031 13.96875 17.617188 13.996094 17.652344 14.027344 C 17.71875 14.089844 17.785156 14.148438 17.847656 14.207031 C 17.910156 14.265625 17.964844 14.324219 18.019531 14.378906 C 18.046875 14.40625 18.074219 14.433594 18.101562 14.460938 C 18.125 14.488281 18.148438 14.515625 18.171875 14.542969 C 18.21875 14.59375 18.265625 14.644531 18.308594 14.691406 C 18.347656 14.738281 18.382812 14.785156 18.417969 14.828125 C 18.453125 14.867188 18.484375 14.90625 18.511719 14.945312 C 18.542969 14.980469 18.566406 15.015625 18.589844 15.042969 C 18.597656 15.054688 18.605469 15.066406 18.613281 15.078125 C 18.570312 15.203125 18.542969 15.339844 18.542969 15.480469 C 18.542969 16.167969 19.109375 16.726562 19.804688 16.726562 C 20.5 16.726562 21.0625 16.167969 21.0625 15.480469 C 21.0625 14.796875 20.507812 14.242188 19.816406 14.234375 " fill-opacity="1" fill-rule="nonzero"/></g><g clip-path="url(#a7e1bddf0a)"><path fill="#ed166d" d="M 10.070312 34.277344 C 9.679688 34.277344 9.363281 33.964844 9.363281 33.578125 C 9.363281 33.195312 9.679688 32.882812 10.070312 32.882812 C 10.460938 32.882812 10.777344 33.195312 10.777344 33.578125 C 10.777344 33.964844 10.460938 34.277344 10.070312 34.277344 Z M 11.539062 14.195312 C 11.609375 14.203125 11.683594 14.210938 11.765625 14.21875 C 11.847656 14.226562 11.933594 14.234375 12.027344 14.246094 C 12.121094 14.257812 12.21875 14.273438 12.324219 14.289062 C 12.375 14.296875 12.429688 14.304688 12.484375 14.3125 C 12.539062 14.324219 12.59375 14.335938 12.652344 14.347656 C 12.765625 14.371094 12.882812 14.390625 13.007812 14.421875 C 13.128906 14.453125 13.257812 14.484375 13.390625 14.519531 C 13.457031 14.53125 13.523438 14.554688 13.589844 14.574219 C 13.660156 14.597656 13.726562 14.617188 13.796875 14.640625 C 14.351562 14.816406 14.964844 15.070312 15.589844 15.417969 C 15.609375 15.429688 15.628906 15.4375 15.648438 15.449219 C 15.667969 15.460938 15.6875 15.472656 15.703125 15.484375 C 15.742188 15.507812 15.78125 15.53125 15.820312 15.554688 C 15.898438 15.601562 15.980469 15.648438 16.058594 15.699219 C 16.132812 15.75 16.210938 15.800781 16.289062 15.855469 C 16.328125 15.878906 16.367188 15.90625 16.410156 15.933594 C 16.449219 15.960938 16.484375 15.988281 16.523438 16.015625 C 16.601562 16.074219 16.679688 16.132812 16.757812 16.191406 C 16.796875 16.21875 16.835938 16.25 16.871094 16.28125 C 16.910156 16.3125 16.949219 16.34375 16.988281 16.375 C 17.027344 16.40625 17.0625 16.4375 17.101562 16.46875 L 17.160156 16.515625 L 17.214844 16.566406 C 17.289062 16.632812 17.367188 16.699219 17.441406 16.769531 L 17.496094 16.820312 C 17.515625 16.835938 17.535156 16.855469 17.550781 16.871094 C 17.589844 16.910156 17.625 16.945312 17.660156 16.980469 C 17.699219 17.015625 17.734375 17.054688 17.769531 17.089844 L 17.828125 17.144531 C 17.84375 17.164062 17.863281 17.183594 17.878906 17.199219 C 17.949219 17.277344 18.019531 17.355469 18.089844 17.433594 L 18.144531 17.488281 L 18.195312 17.550781 C 18.230469 17.589844 18.261719 17.632812 18.296875 17.671875 C 18.4375 17.832031 18.5625 18.007812 18.691406 18.179688 C 18.707031 18.199219 18.722656 18.222656 18.738281 18.246094 L 18.785156 18.3125 C 18.816406 18.355469 18.847656 18.402344 18.875 18.445312 C 18.90625 18.492188 18.9375 18.535156 18.96875 18.582031 C 18.996094 18.628906 19.027344 18.675781 19.054688 18.722656 C 19.523438 19.464844 19.890625 20.296875 20.136719 21.175781 C 20.167969 21.285156 20.195312 21.398438 20.222656 21.507812 C 20.230469 21.535156 20.238281 21.5625 20.242188 21.589844 L 20.261719 21.675781 L 20.296875 21.84375 C 20.308594 21.898438 20.320312 21.957031 20.328125 22.011719 L 20.355469 22.183594 L 20.382812 22.351562 C 20.390625 22.410156 20.402344 22.464844 20.40625 22.523438 C 20.417969 22.636719 20.429688 22.75 20.441406 22.867188 C 20.445312 22.894531 20.449219 22.921875 20.449219 22.953125 L 20.453125 23.039062 L 20.464844 23.210938 L 20.472656 23.382812 C 20.472656 23.410156 20.472656 23.441406 20.472656 23.46875 L 20.472656 23.902344 L 20.457031 24.25 L 20.453125 24.339844 C 20.449219 24.367188 20.449219 24.398438 20.445312 24.425781 L 20.429688 24.59375 L 20.410156 24.761719 L 20.402344 24.84375 C 20.398438 24.875 20.394531 24.902344 20.390625 24.929688 C 20.371094 25.042969 20.355469 25.15625 20.335938 25.269531 C 20.328125 25.324219 20.316406 25.382812 20.304688 25.4375 L 20.269531 25.605469 L 20.234375 25.769531 C 20.222656 25.828125 20.207031 25.882812 20.195312 25.9375 L 20.152344 26.101562 L 20.128906 26.183594 C 20.121094 26.210938 20.113281 26.238281 20.105469 26.265625 C 20.074219 26.371094 20.039062 26.480469 20.003906 26.585938 C 19.71875 27.4375 19.316406 28.234375 18.828125 28.933594 C 18.796875 28.976562 18.765625 29.019531 18.738281 29.0625 C 18.703125 29.105469 18.671875 29.148438 18.640625 29.191406 C 18.609375 29.234375 18.578125 29.273438 18.542969 29.316406 L 18.496094 29.378906 C 18.480469 29.402344 18.464844 29.421875 18.449219 29.441406 C 18.3125 29.601562 18.183594 29.761719 18.042969 29.910156 C 18.007812 29.949219 17.972656 29.984375 17.9375 30.023438 L 17.886719 30.078125 L 17.832031 30.132812 C 17.761719 30.203125 17.6875 30.273438 17.617188 30.34375 C 17.597656 30.363281 17.582031 30.378906 17.5625 30.398438 L 17.507812 30.449219 C 17.472656 30.480469 17.433594 30.511719 17.398438 30.546875 C 17.359375 30.578125 17.324219 30.613281 17.289062 30.644531 C 17.269531 30.660156 17.25 30.679688 17.234375 30.695312 L 17.175781 30.738281 C 17.101562 30.800781 17.023438 30.863281 16.949219 30.921875 L 16.894531 30.96875 L 16.835938 31.011719 C 16.800781 31.039062 16.761719 31.066406 16.722656 31.09375 C 16.683594 31.125 16.648438 31.152344 16.609375 31.179688 C 16.570312 31.207031 16.535156 31.234375 16.496094 31.261719 C 16.417969 31.3125 16.339844 31.363281 16.265625 31.414062 C 16.226562 31.4375 16.1875 31.464844 16.148438 31.488281 C 16.109375 31.511719 16.074219 31.535156 16.035156 31.558594 C 15.957031 31.605469 15.878906 31.648438 15.804688 31.695312 C 15.726562 31.738281 15.652344 31.777344 15.574219 31.820312 C 15.535156 31.839844 15.5 31.859375 15.460938 31.878906 L 15.40625 31.910156 C 15.386719 31.921875 15.367188 31.929688 15.347656 31.9375 C 14.738281 32.238281 14.152344 32.445312 13.625 32.589844 C 13.558594 32.605469 13.492188 32.621094 13.429688 32.636719 C 13.363281 32.652344 13.300781 32.671875 13.238281 32.683594 C 13.113281 32.707031 12.992188 32.734375 12.875 32.757812 C 12.761719 32.777344 12.648438 32.792969 12.539062 32.808594 C 12.488281 32.816406 12.433594 32.824219 12.382812 32.832031 C 12.332031 32.835938 12.28125 32.839844 12.234375 32.847656 C 12.136719 32.855469 12.042969 32.867188 11.957031 32.875 C 11.871094 32.878906 11.789062 32.882812 11.710938 32.886719 C 11.636719 32.890625 11.566406 32.894531 11.5 32.898438 C 11.4375 32.898438 11.378906 32.898438 11.324219 32.898438 C 11.242188 32.898438 11.175781 32.898438 11.125 32.898438 C 10.898438 32.558594 10.511719 32.335938 10.070312 32.335938 C 9.375 32.335938 8.8125 32.894531 8.8125 33.578125 C 8.8125 34.265625 9.375 34.824219 10.070312 34.824219 C 10.464844 34.824219 10.816406 34.644531 11.046875 34.367188 C 11.101562 34.363281 11.214844 34.359375 11.375 34.351562 C 11.4375 34.347656 11.503906 34.347656 11.578125 34.339844 C 11.652344 34.332031 11.734375 34.324219 11.820312 34.316406 C 11.910156 34.308594 12.003906 34.296875 12.105469 34.285156 C 12.203125 34.273438 12.308594 34.257812 12.421875 34.238281 C 12.480469 34.230469 12.535156 34.222656 12.59375 34.214844 C 12.652344 34.203125 12.714844 34.191406 12.773438 34.179688 C 12.898438 34.152344 13.027344 34.128906 13.160156 34.101562 C 13.292969 34.066406 13.429688 34.03125 13.570312 33.996094 C 13.644531 33.980469 13.714844 33.957031 13.789062 33.933594 C 13.859375 33.910156 13.933594 33.890625 14.007812 33.867188 C 14.609375 33.675781 15.265625 33.40625 15.9375 33.03125 C 15.960938 33.019531 15.980469 33.007812 16.003906 32.996094 C 16.023438 32.984375 16.042969 32.972656 16.066406 32.960938 C 16.105469 32.933594 16.148438 32.910156 16.191406 32.882812 C 16.273438 32.832031 16.359375 32.785156 16.445312 32.730469 C 16.527344 32.675781 16.609375 32.621094 16.695312 32.5625 C 16.738281 32.535156 16.78125 32.507812 16.824219 32.476562 C 16.867188 32.449219 16.90625 32.417969 16.949219 32.386719 C 17.03125 32.328125 17.113281 32.265625 17.199219 32.203125 C 17.242188 32.171875 17.28125 32.136719 17.324219 32.105469 C 17.363281 32.070312 17.40625 32.039062 17.445312 32.003906 C 17.488281 31.972656 17.53125 31.9375 17.570312 31.902344 L 17.632812 31.851562 L 17.691406 31.800781 C 17.773438 31.726562 17.855469 31.65625 17.9375 31.582031 L 17.996094 31.527344 C 18.015625 31.507812 18.035156 31.488281 18.054688 31.46875 C 18.09375 31.429688 18.132812 31.390625 18.171875 31.351562 C 18.210938 31.316406 18.253906 31.277344 18.292969 31.234375 L 18.351562 31.179688 C 18.371094 31.15625 18.390625 31.136719 18.410156 31.117188 C 18.484375 31.035156 18.558594 30.953125 18.636719 30.867188 L 18.695312 30.804688 L 18.75 30.742188 C 18.785156 30.695312 18.820312 30.652344 18.859375 30.609375 C 19.007812 30.4375 19.144531 30.25 19.285156 30.066406 C 19.304688 30.042969 19.320312 30.019531 19.335938 29.996094 L 19.386719 29.921875 C 19.417969 29.875 19.453125 29.824219 19.484375 29.777344 C 19.519531 29.730469 19.550781 29.679688 19.585938 29.632812 C 19.617188 29.582031 19.648438 29.53125 19.675781 29.480469 C 20.179688 28.683594 20.582031 27.785156 20.847656 26.839844 C 20.878906 26.71875 20.910156 26.601562 20.941406 26.480469 C 20.949219 26.449219 20.957031 26.421875 20.964844 26.390625 L 20.984375 26.300781 L 21.019531 26.117188 C 21.03125 26.058594 21.046875 25.996094 21.058594 25.9375 L 21.085938 25.753906 L 21.117188 25.570312 C 21.125 25.507812 21.136719 25.445312 21.140625 25.386719 C 21.152344 25.261719 21.167969 25.140625 21.179688 25.015625 C 21.183594 24.984375 21.1875 24.953125 21.1875 24.921875 L 21.195312 24.828125 L 21.203125 24.640625 L 21.214844 24.449219 C 21.214844 24.417969 21.214844 24.386719 21.214844 24.359375 L 21.214844 24.269531 L 21.21875 23.902344 L 21.199219 23.53125 L 21.195312 23.4375 C 21.191406 23.40625 21.191406 23.375 21.1875 23.34375 L 21.167969 23.160156 L 21.152344 22.976562 L 21.140625 22.882812 C 21.136719 22.851562 21.132812 22.820312 21.128906 22.792969 C 21.109375 22.667969 21.089844 22.546875 21.074219 22.425781 C 21.066406 22.363281 21.050781 22.304688 21.039062 22.246094 L 21 22.0625 L 20.964844 21.882812 C 20.949219 21.824219 20.933594 21.765625 20.917969 21.707031 L 20.875 21.527344 L 20.851562 21.441406 C 20.84375 21.410156 20.835938 21.378906 20.824219 21.351562 C 20.789062 21.234375 20.753906 21.121094 20.714844 21.003906 C 20.410156 20.082031 19.976562 19.222656 19.449219 18.46875 C 19.417969 18.421875 19.382812 18.371094 19.351562 18.324219 C 19.316406 18.28125 19.28125 18.234375 19.25 18.1875 C 19.214844 18.144531 19.179688 18.097656 19.144531 18.050781 L 19.09375 17.984375 C 19.078125 17.960938 19.058594 17.941406 19.042969 17.917969 C 18.894531 17.746094 18.757812 17.570312 18.605469 17.410156 C 18.566406 17.371094 18.527344 17.328125 18.492188 17.289062 L 18.4375 17.226562 L 18.378906 17.171875 C 18.300781 17.09375 18.222656 17.015625 18.144531 16.941406 C 18.125 16.921875 18.109375 16.902344 18.089844 16.882812 L 18.027344 16.832031 C 17.988281 16.792969 17.949219 16.757812 17.910156 16.722656 C 17.871094 16.6875 17.832031 16.652344 17.789062 16.617188 C 17.769531 16.597656 17.75 16.582031 17.730469 16.5625 L 17.671875 16.511719 C 17.589844 16.449219 17.507812 16.382812 17.429688 16.316406 L 17.367188 16.265625 L 17.304688 16.21875 C 17.265625 16.191406 17.222656 16.160156 17.183594 16.128906 C 17.140625 16.097656 17.101562 16.070312 17.058594 16.039062 C 17.019531 16.007812 16.976562 15.976562 16.9375 15.949219 C 16.851562 15.894531 16.769531 15.839844 16.6875 15.785156 C 16.644531 15.757812 16.605469 15.730469 16.566406 15.703125 C 16.523438 15.679688 16.480469 15.652344 16.4375 15.628906 C 16.355469 15.578125 16.273438 15.527344 16.191406 15.480469 C 16.109375 15.433594 16.023438 15.390625 15.945312 15.34375 C 15.902344 15.324219 15.863281 15.300781 15.820312 15.277344 C 15.800781 15.269531 15.78125 15.257812 15.757812 15.246094 C 15.738281 15.234375 15.71875 15.226562 15.699219 15.214844 C 15.042969 14.890625 14.410156 14.664062 13.835938 14.507812 C 13.765625 14.492188 13.695312 14.472656 13.625 14.457031 C 13.554688 14.4375 13.488281 14.417969 13.417969 14.40625 C 13.285156 14.378906 13.152344 14.351562 13.027344 14.328125 C 12.902344 14.304688 12.78125 14.289062 12.664062 14.269531 C 12.605469 14.261719 12.550781 14.25 12.496094 14.242188 C 12.4375 14.238281 12.386719 14.234375 12.332031 14.226562 C 12.226562 14.214844 12.125 14.207031 12.03125 14.195312 C 11.9375 14.191406 11.851562 14.1875 11.769531 14.183594 C 11.6875 14.179688 11.609375 14.175781 11.539062 14.171875 C 11.46875 14.167969 11.40625 14.167969 11.351562 14.167969 C 11.125 14.167969 11.003906 14.167969 11.003906 14.167969 C 11.003906 14.167969 11.125 14.175781 11.351562 14.183594 C 11.40625 14.1875 11.46875 14.191406 11.539062 14.195312 " fill-opacity="1" fill-rule="nonzero"/></g><path fill="#7b167d" d="M 4.878906 30.210938 C 4.878906 29.824219 5.195312 29.511719 5.585938 29.511719 C 5.972656 29.511719 6.289062 29.824219 6.289062 30.210938 C 6.289062 30.59375 5.972656 30.90625 5.585938 30.90625 C 5.195312 30.90625 4.878906 30.59375 4.878906 30.210938 Z M 10.453125 31.707031 C 10.496094 31.703125 10.535156 31.695312 10.578125 31.6875 C 10.621094 31.679688 10.660156 31.675781 10.703125 31.667969 C 10.789062 31.652344 10.871094 31.640625 10.957031 31.625 C 11.042969 31.605469 11.128906 31.585938 11.214844 31.566406 C 11.257812 31.558594 11.300781 31.546875 11.34375 31.539062 C 11.386719 31.53125 11.429688 31.515625 11.472656 31.503906 C 11.5625 31.480469 11.648438 31.457031 11.738281 31.433594 C 11.78125 31.425781 11.824219 31.410156 11.867188 31.394531 C 11.910156 31.382812 11.957031 31.367188 12 31.355469 C 12.042969 31.339844 12.089844 31.324219 12.132812 31.3125 L 12.265625 31.265625 C 12.351562 31.234375 12.441406 31.199219 12.53125 31.167969 L 12.597656 31.140625 C 12.617188 31.132812 12.640625 31.125 12.664062 31.113281 C 12.707031 31.09375 12.75 31.074219 12.796875 31.058594 C 12.839844 31.039062 12.882812 31.019531 12.929688 31 L 12.996094 30.972656 C 13.015625 30.960938 13.039062 30.949219 13.0625 30.941406 C 13.148438 30.898438 13.234375 30.855469 13.324219 30.8125 L 13.390625 30.78125 L 13.457031 30.746094 C 13.5 30.722656 13.542969 30.699219 13.585938 30.671875 C 13.761719 30.582031 13.933594 30.472656 14.105469 30.371094 C 14.191406 30.316406 14.273438 30.257812 14.359375 30.199219 C 14.402344 30.171875 14.441406 30.144531 14.484375 30.113281 C 14.527344 30.085938 14.566406 30.054688 14.609375 30.023438 C 15.273438 29.539062 15.882812 28.941406 16.402344 28.265625 C 16.464844 28.179688 16.527344 28.09375 16.589844 28.003906 C 16.652344 27.917969 16.710938 27.828125 16.769531 27.738281 L 16.859375 27.605469 L 16.941406 27.464844 L 17.023438 27.328125 C 17.050781 27.28125 17.078125 27.234375 17.101562 27.1875 C 17.152344 27.09375 17.203125 26.996094 17.253906 26.902344 C 17.265625 26.878906 17.277344 26.855469 17.289062 26.832031 L 17.324219 26.757812 L 17.394531 26.605469 L 17.460938 26.457031 C 17.472656 26.433594 17.484375 26.410156 17.492188 26.382812 L 17.523438 26.3125 L 17.636719 26.027344 C 17.644531 26.007812 17.640625 26.015625 17.644531 26.007812 L 17.644531 26 L 17.667969 25.941406 L 17.691406 25.867188 L 17.746094 25.714844 C 17.761719 25.664062 17.78125 25.613281 17.796875 25.5625 L 17.839844 25.410156 L 17.882812 25.253906 L 17.90625 25.175781 C 17.914062 25.152344 17.917969 25.125 17.925781 25.101562 C 17.949219 24.996094 17.972656 24.890625 17.996094 24.789062 C 18.011719 24.738281 18.019531 24.683594 18.027344 24.632812 L 18.082031 24.320312 L 18.105469 24.164062 C 18.117188 24.058594 18.132812 23.953125 18.140625 23.847656 C 18.152344 23.742188 18.160156 23.640625 18.167969 23.535156 C 18.214844 22.699219 18.144531 21.875 17.960938 21.105469 C 17.953125 21.054688 17.941406 21.007812 17.929688 20.960938 C 17.917969 20.910156 17.902344 20.863281 17.890625 20.816406 C 17.863281 20.722656 17.839844 20.628906 17.8125 20.535156 C 17.75 20.351562 17.695312 20.167969 17.625 19.992188 C 17.605469 19.945312 17.589844 19.902344 17.574219 19.859375 L 17.546875 19.792969 L 17.519531 19.730469 C 17.480469 19.644531 17.445312 19.558594 17.40625 19.472656 C 17.398438 19.453125 17.390625 19.429688 17.378906 19.410156 L 17.347656 19.347656 C 17.328125 19.304688 17.308594 19.265625 17.289062 19.222656 C 17.265625 19.183594 17.246094 19.140625 17.226562 19.101562 C 17.214844 19.082031 17.207031 19.0625 17.195312 19.039062 L 17.164062 18.980469 C 17.117188 18.902344 17.074219 18.824219 17.03125 18.746094 L 17 18.6875 L 16.964844 18.632812 C 16.941406 18.59375 16.917969 18.558594 16.894531 18.519531 C 16.871094 18.484375 16.847656 18.445312 16.824219 18.410156 C 16.800781 18.375 16.78125 18.335938 16.753906 18.300781 C 16.707031 18.230469 16.65625 18.160156 16.609375 18.089844 C 16.585938 18.054688 16.5625 18.019531 16.535156 17.988281 C 16.511719 17.953125 16.484375 17.921875 16.460938 17.886719 C 16.410156 17.820312 16.359375 17.757812 16.308594 17.691406 C 16.257812 17.628906 16.203125 17.566406 16.152344 17.507812 C 16.128906 17.476562 16.101562 17.445312 16.074219 17.414062 C 16.050781 17.382812 16.023438 17.355469 15.996094 17.324219 C 15.578125 16.859375 15.144531 16.480469 14.734375 16.179688 C 14.683594 16.144531 14.632812 16.105469 14.582031 16.070312 C 14.53125 16.035156 14.484375 15.996094 14.433594 15.96875 C 14.335938 15.902344 14.238281 15.839844 14.148438 15.78125 C 14.054688 15.722656 13.960938 15.671875 13.875 15.621094 C 13.832031 15.597656 13.789062 15.570312 13.746094 15.550781 C 13.703125 15.527344 13.664062 15.507812 13.621094 15.484375 C 13.539062 15.445312 13.464844 15.40625 13.390625 15.367188 C 13.320312 15.332031 13.25 15.304688 13.183594 15.273438 C 13.121094 15.246094 13.0625 15.21875 13.007812 15.191406 C 12.953125 15.167969 12.902344 15.152344 12.855469 15.132812 C 12.675781 15.0625 12.578125 15.023438 12.578125 15.023438 C 12.578125 15.023438 12.671875 15.066406 12.847656 15.148438 C 12.894531 15.167969 12.945312 15.1875 12.996094 15.214844 C 13.050781 15.242188 13.105469 15.273438 13.167969 15.304688 C 13.230469 15.339844 13.300781 15.371094 13.371094 15.410156 C 13.4375 15.453125 13.511719 15.496094 13.589844 15.539062 C 13.628906 15.5625 13.667969 15.585938 13.710938 15.609375 C 13.75 15.636719 13.789062 15.664062 13.832031 15.691406 C 13.914062 15.746094 14.003906 15.800781 14.09375 15.863281 C 14.179688 15.925781 14.269531 15.992188 14.367188 16.058594 C 14.414062 16.09375 14.457031 16.132812 14.507812 16.171875 C 14.554688 16.207031 14.601562 16.246094 14.648438 16.285156 C 15.035156 16.605469 15.4375 17 15.820312 17.472656 C 15.84375 17.503906 15.867188 17.53125 15.890625 17.5625 C 15.914062 17.59375 15.9375 17.625 15.960938 17.65625 C 16.007812 17.71875 16.054688 17.78125 16.101562 17.84375 C 16.148438 17.910156 16.191406 17.976562 16.238281 18.042969 C 16.257812 18.078125 16.28125 18.109375 16.304688 18.144531 C 16.328125 18.175781 16.347656 18.210938 16.371094 18.246094 C 16.414062 18.316406 16.457031 18.386719 16.5 18.457031 C 16.519531 18.492188 16.539062 18.53125 16.5625 18.566406 C 16.582031 18.601562 16.601562 18.640625 16.621094 18.675781 C 16.640625 18.714844 16.660156 18.75 16.683594 18.789062 L 16.714844 18.84375 L 16.742188 18.902344 C 16.777344 18.976562 16.816406 19.054688 16.855469 19.132812 L 16.882812 19.191406 C 16.890625 19.210938 16.898438 19.230469 16.910156 19.25 C 16.925781 19.292969 16.941406 19.332031 16.960938 19.371094 C 16.976562 19.414062 16.996094 19.453125 17.011719 19.492188 L 17.039062 19.554688 C 17.046875 19.574219 17.054688 19.59375 17.0625 19.617188 C 17.09375 19.699219 17.125 19.78125 17.15625 19.867188 L 17.179688 19.929688 L 17.199219 19.992188 C 17.210938 20.035156 17.226562 20.078125 17.238281 20.121094 C 17.296875 20.292969 17.339844 20.472656 17.390625 20.648438 C 17.410156 20.738281 17.429688 20.828125 17.449219 20.921875 C 17.460938 20.964844 17.46875 21.011719 17.480469 21.058594 C 17.488281 21.101562 17.496094 21.148438 17.5 21.195312 C 17.632812 21.933594 17.65625 22.710938 17.566406 23.484375 C 17.550781 23.578125 17.539062 23.675781 17.527344 23.773438 C 17.511719 23.867188 17.492188 23.964844 17.472656 24.0625 L 17.445312 24.207031 L 17.414062 24.347656 L 17.378906 24.492188 C 17.367188 24.539062 17.355469 24.585938 17.339844 24.632812 C 17.3125 24.730469 17.285156 24.824219 17.257812 24.917969 C 17.25 24.941406 17.246094 24.964844 17.238281 24.988281 L 17.214844 25.058594 L 17.164062 25.195312 L 17.117188 25.335938 C 17.101562 25.382812 17.078125 25.425781 17.0625 25.472656 L 16.953125 25.738281 L 16.824219 26.015625 L 16.789062 26.085938 C 16.78125 26.109375 16.769531 26.132812 16.757812 26.152344 L 16.6875 26.28125 L 16.621094 26.40625 L 16.589844 26.46875 C 16.578125 26.492188 16.5625 26.511719 16.550781 26.535156 C 16.5 26.617188 16.449219 26.699219 16.398438 26.785156 C 16.375 26.828125 16.347656 26.867188 16.320312 26.90625 L 16.15625 27.148438 L 16.070312 27.265625 C 16.011719 27.34375 15.957031 27.421875 15.894531 27.5 C 15.835938 27.574219 15.773438 27.648438 15.710938 27.722656 C 15.210938 28.304688 14.636719 28.804688 14.023438 29.203125 C 13.984375 29.226562 13.949219 29.253906 13.910156 29.277344 C 13.871094 29.300781 13.832031 29.324219 13.792969 29.347656 C 13.714844 29.390625 13.640625 29.441406 13.5625 29.484375 C 13.402344 29.566406 13.25 29.65625 13.089844 29.726562 C 13.050781 29.746094 13.011719 29.761719 12.972656 29.78125 L 12.914062 29.808594 L 12.851562 29.835938 C 12.773438 29.867188 12.695312 29.902344 12.613281 29.933594 C 12.59375 29.941406 12.574219 29.949219 12.554688 29.957031 L 12.496094 29.980469 C 12.457031 29.996094 12.417969 30.007812 12.375 30.023438 C 12.335938 30.039062 12.296875 30.050781 12.257812 30.066406 C 12.238281 30.074219 12.21875 30.082031 12.199219 30.085938 L 12.140625 30.105469 C 12.058594 30.132812 11.980469 30.15625 11.902344 30.179688 L 11.84375 30.199219 L 11.785156 30.214844 C 11.746094 30.222656 11.707031 30.234375 11.667969 30.242188 C 11.628906 30.253906 11.589844 30.261719 11.550781 30.273438 C 11.511719 30.285156 11.472656 30.292969 11.433594 30.300781 C 11.359375 30.316406 11.28125 30.335938 11.203125 30.351562 C 11.167969 30.355469 11.128906 30.367188 11.089844 30.371094 C 11.050781 30.378906 11.015625 30.386719 10.976562 30.390625 C 10.902344 30.402344 10.828125 30.414062 10.753906 30.425781 C 10.679688 30.4375 10.605469 30.445312 10.53125 30.453125 C 10.496094 30.457031 10.457031 30.460938 10.421875 30.464844 C 10.386719 30.46875 10.347656 30.472656 10.3125 30.472656 C 9.738281 30.519531 9.210938 30.5 8.75 30.445312 C 8.691406 30.4375 8.636719 30.429688 8.578125 30.421875 C 8.523438 30.414062 8.46875 30.410156 8.414062 30.398438 C 8.308594 30.378906 8.207031 30.359375 8.105469 30.339844 C 8.007812 30.320312 7.914062 30.296875 7.828125 30.277344 C 7.78125 30.265625 7.738281 30.253906 7.695312 30.246094 C 7.652344 30.230469 7.613281 30.21875 7.574219 30.207031 C 7.492188 30.1875 7.417969 30.164062 7.347656 30.144531 C 7.277344 30.121094 7.210938 30.097656 7.148438 30.078125 C 7.089844 30.054688 7.03125 30.035156 6.980469 30.019531 C 6.929688 30 6.882812 29.980469 6.84375 29.964844 C 6.832031 29.960938 6.824219 29.957031 6.816406 29.953125 C 6.695312 29.390625 6.191406 28.964844 5.585938 28.964844 C 4.890625 28.964844 4.324219 29.523438 4.324219 30.210938 C 4.324219 30.898438 4.890625 31.453125 5.585938 31.453125 C 5.8125 31.453125 6.027344 31.394531 6.214844 31.289062 C 6.25 31.300781 6.296875 31.316406 6.34375 31.332031 C 6.394531 31.347656 6.449219 31.367188 6.511719 31.386719 C 6.574219 31.40625 6.644531 31.421875 6.71875 31.445312 C 6.789062 31.464844 6.871094 31.488281 6.953125 31.511719 C 7.039062 31.53125 7.128906 31.550781 7.226562 31.574219 C 7.273438 31.582031 7.324219 31.59375 7.375 31.605469 C 7.425781 31.617188 7.476562 31.625 7.53125 31.636719 C 7.636719 31.652344 7.75 31.675781 7.867188 31.691406 C 7.984375 31.707031 8.105469 31.722656 8.234375 31.738281 C 8.296875 31.75 8.359375 31.75 8.425781 31.757812 C 8.492188 31.761719 8.558594 31.765625 8.628906 31.773438 C 9.171875 31.804688 9.789062 31.796875 10.453125 31.707031 " fill-opacity="1" fill-rule="nonzero"/><g clip-path="url(#9bf79fd2c8)"><path fill="#38b6ff" d="M 1.90625 23.925781 C 2.296875 23.925781 2.613281 24.238281 2.613281 24.621094 C 2.613281 25.007812 2.296875 25.320312 1.90625 25.320312 C 1.515625 25.320312 1.199219 25.007812 1.199219 24.621094 C 1.199219 24.238281 1.515625 23.925781 1.90625 23.925781 Z M 1.894531 25.867188 C 1.914062 25.894531 1.941406 25.925781 1.972656 25.960938 C 2 25.996094 2.03125 26.035156 2.070312 26.078125 C 2.109375 26.117188 2.152344 26.164062 2.195312 26.214844 C 2.242188 26.261719 2.289062 26.316406 2.34375 26.371094 C 2.398438 26.421875 2.453125 26.480469 2.515625 26.539062 C 2.546875 26.570312 2.578125 26.601562 2.609375 26.632812 C 2.644531 26.664062 2.679688 26.691406 2.714844 26.722656 C 2.785156 26.785156 2.859375 26.851562 2.9375 26.917969 C 3.015625 26.984375 3.101562 27.050781 3.1875 27.121094 C 3.230469 27.15625 3.277344 27.1875 3.324219 27.222656 C 3.371094 27.253906 3.417969 27.289062 3.46875 27.324219 C 3.859375 27.597656 4.324219 27.867188 4.855469 28.101562 C 5.390625 28.335938 5.996094 28.523438 6.652344 28.640625 L 6.710938 28.652344 C 6.734375 28.65625 6.753906 28.65625 6.773438 28.660156 C 6.816406 28.667969 6.855469 28.671875 6.898438 28.679688 C 6.941406 28.683594 6.980469 28.691406 7.023438 28.695312 L 7.085938 28.703125 C 7.109375 28.707031 7.128906 28.710938 7.148438 28.710938 C 7.234375 28.71875 7.320312 28.726562 7.40625 28.734375 L 7.46875 28.742188 L 7.535156 28.746094 C 7.578125 28.746094 7.621094 28.75 7.664062 28.75 C 7.835938 28.761719 8.011719 28.757812 8.191406 28.757812 C 8.277344 28.757812 8.367188 28.753906 8.457031 28.75 C 8.5 28.746094 8.546875 28.742188 8.589844 28.742188 C 8.636719 28.738281 8.679688 28.734375 8.722656 28.730469 C 9.441406 28.667969 10.167969 28.503906 10.867188 28.234375 C 10.953125 28.199219 11.039062 28.164062 11.128906 28.128906 C 11.214844 28.089844 11.296875 28.050781 11.382812 28.011719 L 11.511719 27.949219 L 11.761719 27.820312 C 11.800781 27.796875 11.84375 27.777344 11.882812 27.75 C 11.964844 27.703125 12.046875 27.65625 12.125 27.605469 C 12.148438 27.59375 12.167969 27.582031 12.1875 27.570312 L 12.246094 27.53125 L 12.367188 27.449219 L 12.488281 27.371094 C 12.507812 27.359375 12.527344 27.34375 12.542969 27.332031 L 12.597656 27.292969 L 12.820312 27.125 L 13.039062 26.949219 C 13.074219 26.917969 13.113281 26.890625 13.148438 26.859375 L 13.25 26.765625 L 13.355469 26.671875 L 13.40625 26.625 C 13.421875 26.605469 13.4375 26.589844 13.457031 26.574219 C 13.519531 26.507812 13.585938 26.441406 13.652344 26.375 C 13.6875 26.34375 13.714844 26.308594 13.746094 26.273438 L 13.839844 26.171875 L 13.933594 26.066406 L 14.019531 25.960938 C 14.078125 25.890625 14.136719 25.820312 14.191406 25.746094 C 14.246094 25.671875 14.300781 25.597656 14.355469 25.523438 C 14.777344 24.929688 15.101562 24.285156 15.324219 23.632812 C 15.335938 23.59375 15.351562 23.550781 15.363281 23.511719 C 15.378906 23.472656 15.390625 23.429688 15.402344 23.390625 C 15.425781 23.308594 15.449219 23.226562 15.472656 23.144531 C 15.511719 22.980469 15.554688 22.820312 15.582031 22.660156 C 15.589844 22.617188 15.597656 22.578125 15.605469 22.539062 L 15.617188 22.480469 L 15.625 22.417969 C 15.640625 22.335938 15.648438 22.257812 15.660156 22.179688 C 15.664062 22.160156 15.667969 22.140625 15.667969 22.117188 L 15.675781 22.058594 C 15.679688 22.019531 15.683594 21.980469 15.6875 21.941406 C 15.691406 21.902344 15.695312 21.863281 15.699219 21.824219 C 15.699219 21.804688 15.703125 21.785156 15.703125 21.765625 L 15.707031 21.707031 C 15.710938 21.628906 15.714844 21.550781 15.71875 21.472656 L 15.71875 21.359375 C 15.71875 21.320312 15.71875 21.285156 15.71875 21.246094 C 15.71875 21.207031 15.71875 21.167969 15.71875 21.132812 C 15.71875 21.09375 15.71875 21.058594 15.71875 21.019531 C 15.714844 20.945312 15.710938 20.871094 15.707031 20.800781 C 15.703125 20.761719 15.703125 20.726562 15.699219 20.691406 C 15.695312 20.65625 15.691406 20.617188 15.6875 20.582031 C 15.683594 20.511719 15.675781 20.441406 15.667969 20.371094 C 15.660156 20.300781 15.648438 20.230469 15.636719 20.164062 C 15.632812 20.128906 15.628906 20.09375 15.625 20.0625 C 15.617188 20.027344 15.613281 19.996094 15.605469 19.960938 C 15.507812 19.429688 15.363281 18.953125 15.199219 18.550781 C 15.179688 18.5 15.15625 18.449219 15.136719 18.402344 C 15.117188 18.351562 15.097656 18.304688 15.074219 18.257812 C 15.03125 18.164062 14.988281 18.078125 14.949219 17.992188 C 14.90625 17.90625 14.859375 17.828125 14.820312 17.753906 C 14.800781 17.714844 14.78125 17.679688 14.761719 17.640625 C 14.738281 17.605469 14.71875 17.574219 14.699219 17.539062 C 14.65625 17.472656 14.617188 17.410156 14.582031 17.351562 C 14.542969 17.292969 14.507812 17.238281 14.472656 17.1875 C 14.4375 17.136719 14.40625 17.089844 14.378906 17.046875 C 14.347656 17.007812 14.320312 16.96875 14.292969 16.9375 C 14.195312 16.804688 14.140625 16.734375 14.140625 16.734375 C 14.140625 16.734375 14.1875 16.808594 14.28125 16.945312 C 14.304688 16.980469 14.332031 17.019531 14.355469 17.0625 C 14.382812 17.105469 14.410156 17.15625 14.441406 17.207031 C 14.472656 17.257812 14.507812 17.316406 14.539062 17.375 C 14.570312 17.4375 14.605469 17.5 14.640625 17.570312 C 14.660156 17.605469 14.679688 17.640625 14.695312 17.675781 C 14.714844 17.710938 14.730469 17.75 14.75 17.789062 C 14.785156 17.867188 14.824219 17.945312 14.859375 18.03125 C 14.894531 18.117188 14.929688 18.207031 14.96875 18.300781 C 14.988281 18.347656 15.003906 18.398438 15.019531 18.445312 C 15.035156 18.496094 15.054688 18.546875 15.070312 18.59375 C 15.203125 19.003906 15.316406 19.472656 15.375 19.996094 C 15.382812 20.027344 15.382812 20.058594 15.386719 20.09375 C 15.390625 20.125 15.390625 20.160156 15.394531 20.191406 C 15.398438 20.257812 15.40625 20.324219 15.410156 20.394531 C 15.414062 20.460938 15.414062 20.53125 15.417969 20.597656 C 15.417969 20.632812 15.417969 20.667969 15.421875 20.703125 C 15.421875 20.738281 15.421875 20.773438 15.417969 20.808594 C 15.417969 20.878906 15.417969 20.949219 15.417969 21.019531 C 15.417969 21.054688 15.414062 21.09375 15.410156 21.128906 C 15.410156 21.164062 15.40625 21.199219 15.40625 21.234375 C 15.402344 21.273438 15.398438 21.308594 15.398438 21.34375 L 15.394531 21.398438 L 15.386719 21.453125 C 15.378906 21.527344 15.371094 21.601562 15.363281 21.675781 L 15.355469 21.730469 C 15.355469 21.75 15.351562 21.765625 15.347656 21.785156 C 15.34375 21.824219 15.335938 21.859375 15.332031 21.898438 C 15.324219 21.933594 15.316406 21.972656 15.3125 22.007812 L 15.300781 22.066406 C 15.300781 22.082031 15.296875 22.101562 15.292969 22.121094 C 15.277344 22.195312 15.257812 22.269531 15.242188 22.34375 L 15.230469 22.402344 L 15.214844 22.457031 C 15.207031 22.496094 15.195312 22.535156 15.1875 22.570312 C 15.152344 22.722656 15.101562 22.871094 15.050781 23.023438 C 15.027344 23.097656 15 23.171875 14.972656 23.246094 C 14.957031 23.285156 14.941406 23.320312 14.929688 23.359375 C 14.914062 23.398438 14.898438 23.433594 14.882812 23.472656 C 14.636719 24.066406 14.292969 24.644531 13.871094 25.167969 C 13.816406 25.230469 13.761719 25.296875 13.710938 25.359375 C 13.652344 25.421875 13.59375 25.484375 13.539062 25.546875 L 13.453125 25.640625 L 13.359375 25.726562 L 13.269531 25.816406 C 13.238281 25.84375 13.210938 25.875 13.179688 25.902344 C 13.113281 25.960938 13.050781 26.015625 12.988281 26.070312 C 12.972656 26.085938 12.957031 26.101562 12.9375 26.113281 L 12.890625 26.152344 L 12.789062 26.234375 L 12.691406 26.3125 C 12.65625 26.339844 12.621094 26.363281 12.585938 26.386719 L 12.378906 26.535156 L 12.164062 26.675781 L 12.105469 26.710938 C 12.085938 26.722656 12.070312 26.734375 12.050781 26.746094 L 11.945312 26.804688 L 11.78125 26.898438 C 11.765625 26.910156 11.746094 26.917969 11.726562 26.925781 C 11.652344 26.964844 11.578125 27.003906 11.5 27.042969 C 11.464844 27.0625 11.425781 27.078125 11.386719 27.09375 L 11.273438 27.148438 L 11.15625 27.199219 L 11.039062 27.242188 C 10.960938 27.273438 10.886719 27.304688 10.808594 27.332031 C 10.726562 27.359375 10.648438 27.386719 10.570312 27.410156 C 9.9375 27.609375 9.292969 27.714844 8.664062 27.726562 C 8.625 27.726562 8.585938 27.730469 8.546875 27.730469 C 8.507812 27.730469 8.472656 27.730469 8.433594 27.726562 C 8.355469 27.726562 8.277344 27.726562 8.199219 27.722656 C 8.046875 27.710938 7.894531 27.707031 7.746094 27.6875 C 7.710938 27.683594 7.671875 27.679688 7.636719 27.671875 L 7.582031 27.667969 L 7.527344 27.660156 C 7.453125 27.648438 7.378906 27.636719 7.308594 27.625 C 7.289062 27.621094 7.273438 27.617188 7.253906 27.613281 L 7.199219 27.605469 C 7.164062 27.597656 7.128906 27.589844 7.09375 27.582031 C 7.058594 27.574219 7.023438 27.566406 6.988281 27.558594 C 6.972656 27.554688 6.953125 27.550781 6.9375 27.546875 L 6.886719 27.535156 C 6.816406 27.515625 6.746094 27.5 6.679688 27.480469 L 6.628906 27.46875 L 6.578125 27.453125 C 6.546875 27.441406 6.511719 27.433594 6.480469 27.421875 C 6.449219 27.414062 6.414062 27.402344 6.382812 27.390625 C 6.351562 27.382812 6.316406 27.371094 6.285156 27.359375 C 6.222656 27.335938 6.160156 27.3125 6.097656 27.292969 C 6.066406 27.28125 6.035156 27.269531 6.003906 27.257812 C 5.972656 27.242188 5.941406 27.230469 5.914062 27.21875 C 5.851562 27.195312 5.792969 27.167969 5.734375 27.144531 C 5.675781 27.117188 5.617188 27.089844 5.5625 27.0625 C 5.535156 27.050781 5.503906 27.035156 5.476562 27.023438 C 5.449219 27.007812 5.421875 26.996094 5.394531 26.980469 C 4.957031 26.757812 4.585938 26.503906 4.277344 26.257812 C 4.242188 26.226562 4.203125 26.195312 4.167969 26.164062 C 4.128906 26.136719 4.09375 26.105469 4.058594 26.074219 C 3.992188 26.011719 3.925781 25.953125 3.863281 25.894531 C 3.800781 25.835938 3.746094 25.777344 3.691406 25.722656 C 3.664062 25.695312 3.636719 25.667969 3.609375 25.640625 C 3.585938 25.613281 3.5625 25.585938 3.539062 25.5625 C 3.492188 25.507812 3.445312 25.460938 3.402344 25.414062 C 3.363281 25.363281 3.328125 25.320312 3.292969 25.277344 C 3.257812 25.234375 3.226562 25.195312 3.199219 25.160156 C 3.167969 25.125 3.144531 25.089844 3.121094 25.058594 C 3.113281 25.046875 3.105469 25.035156 3.097656 25.023438 C 3.140625 24.898438 3.164062 24.761719 3.164062 24.621094 C 3.164062 23.933594 2.601562 23.378906 1.90625 23.378906 C 1.210938 23.378906 0.648438 23.933594 0.648438 24.621094 C 0.648438 25.304688 1.203125 25.859375 1.894531 25.867188 " fill-opacity="1" fill-rule="nonzero"/></g><g fill="#7b167d" fill-opacity="1"><g transform="translate(20.995065, 13.161107)"><g><path d="M 0.609375 -1.15625 C 0.578125 -1.238281 0.550781 -1.316406 0.53125 -1.390625 C 0.519531 -1.472656 0.507812 -1.566406 0.5 -1.671875 C 0.488281 -1.785156 0.476562 -1.921875 0.46875 -2.078125 C 0.46875 -2.234375 0.46875 -2.421875 0.46875 -2.640625 C 0.46875 -2.859375 0.46875 -3.046875 0.46875 -3.203125 C 0.476562 -3.359375 0.488281 -3.488281 0.5 -3.59375 C 0.507812 -3.707031 0.519531 -3.800781 0.53125 -3.875 C 0.550781 -3.957031 0.578125 -4.039062 0.609375 -4.125 C 0.742188 -4.539062 0.957031 -4.847656 1.25 -5.046875 C 1.550781 -5.253906 1.921875 -5.359375 2.359375 -5.359375 C 2.753906 -5.359375 3.097656 -5.265625 3.390625 -5.078125 C 3.679688 -4.898438 3.898438 -4.640625 4.046875 -4.296875 C 4.066406 -4.253906 4.054688 -4.222656 4.015625 -4.203125 L 3.5625 -3.96875 C 3.507812 -3.945312 3.472656 -3.960938 3.453125 -4.015625 C 3.347656 -4.222656 3.207031 -4.390625 3.03125 -4.515625 C 2.863281 -4.648438 2.640625 -4.71875 2.359375 -4.71875 C 2.066406 -4.71875 1.832031 -4.648438 1.65625 -4.515625 C 1.476562 -4.378906 1.347656 -4.1875 1.265625 -3.9375 C 1.253906 -3.882812 1.238281 -3.828125 1.21875 -3.765625 C 1.207031 -3.703125 1.195312 -3.617188 1.1875 -3.515625 C 1.1875 -3.421875 1.179688 -3.300781 1.171875 -3.15625 C 1.171875 -3.019531 1.171875 -2.847656 1.171875 -2.640625 C 1.171875 -2.429688 1.171875 -2.253906 1.171875 -2.109375 C 1.179688 -1.972656 1.1875 -1.851562 1.1875 -1.75 C 1.195312 -1.65625 1.207031 -1.570312 1.21875 -1.5 C 1.238281 -1.4375 1.253906 -1.378906 1.265625 -1.328125 C 1.347656 -1.085938 1.476562 -0.898438 1.65625 -0.765625 C 1.832031 -0.628906 2.066406 -0.5625 2.359375 -0.5625 C 2.640625 -0.5625 2.863281 -0.625 3.03125 -0.75 C 3.207031 -0.882812 3.347656 -1.054688 3.453125 -1.265625 C 3.472656 -1.316406 3.507812 -1.328125 3.5625 -1.296875 L 4.015625 -1.078125 C 4.054688 -1.054688 4.066406 -1.023438 4.046875 -0.984375 C 3.898438 -0.640625 3.679688 -0.375 3.390625 -0.1875 C 3.097656 -0.0078125 2.753906 0.078125 2.359375 0.078125 C 1.921875 0.078125 1.550781 -0.0195312 1.25 -0.21875 C 0.957031 -0.425781 0.742188 -0.738281 0.609375 -1.15625 Z M 0.609375 -1.15625 "/></g></g></g><g fill="#7b167d" fill-opacity="1"><g transform="translate(26.894744, 13.161107)"><g><path d="M 2.40625 0.078125 C 1.957031 0.078125 1.578125 -0.0195312 1.265625 -0.21875 C 0.960938 -0.425781 0.742188 -0.738281 0.609375 -1.15625 C 0.578125 -1.226562 0.550781 -1.304688 0.53125 -1.390625 C 0.519531 -1.472656 0.507812 -1.566406 0.5 -1.671875 C 0.488281 -1.785156 0.476562 -1.921875 0.46875 -2.078125 C 0.46875 -2.234375 0.46875 -2.421875 0.46875 -2.640625 C 0.46875 -2.859375 0.46875 -3.046875 0.46875 -3.203125 C 0.476562 -3.359375 0.488281 -3.488281 0.5 -3.59375 C 0.507812 -3.707031 0.519531 -3.804688 0.53125 -3.890625 C 0.550781 -3.972656 0.578125 -4.050781 0.609375 -4.125 C 0.742188 -4.539062 0.960938 -4.847656 1.265625 -5.046875 C 1.578125 -5.253906 1.957031 -5.359375 2.40625 -5.359375 C 2.851562 -5.359375 3.226562 -5.253906 3.53125 -5.046875 C 3.84375 -4.847656 4.066406 -4.539062 4.203125 -4.125 C 4.222656 -4.050781 4.242188 -3.972656 4.265625 -3.890625 C 4.285156 -3.804688 4.300781 -3.707031 4.3125 -3.59375 C 4.320312 -3.488281 4.328125 -3.359375 4.328125 -3.203125 C 4.335938 -3.046875 4.34375 -2.859375 4.34375 -2.640625 C 4.34375 -2.421875 4.335938 -2.234375 4.328125 -2.078125 C 4.328125 -1.921875 4.320312 -1.785156 4.3125 -1.671875 C 4.300781 -1.566406 4.285156 -1.472656 4.265625 -1.390625 C 4.242188 -1.304688 4.222656 -1.226562 4.203125 -1.15625 C 4.066406 -0.738281 3.84375 -0.425781 3.53125 -0.21875 C 3.226562 -0.0195312 2.851562 0.078125 2.40625 0.078125 Z M 2.40625 -0.5625 C 2.695312 -0.5625 2.9375 -0.628906 3.125 -0.765625 C 3.3125 -0.898438 3.445312 -1.09375 3.53125 -1.34375 C 3.539062 -1.382812 3.550781 -1.441406 3.5625 -1.515625 C 3.582031 -1.585938 3.597656 -1.675781 3.609375 -1.78125 C 3.617188 -1.882812 3.625 -2.003906 3.625 -2.140625 C 3.632812 -2.285156 3.640625 -2.453125 3.640625 -2.640625 C 3.640625 -2.828125 3.632812 -2.988281 3.625 -3.125 C 3.625 -3.269531 3.617188 -3.394531 3.609375 -3.5 C 3.597656 -3.601562 3.582031 -3.691406 3.5625 -3.765625 C 3.550781 -3.835938 3.539062 -3.894531 3.53125 -3.9375 C 3.445312 -4.1875 3.3125 -4.378906 3.125 -4.515625 C 2.9375 -4.648438 2.695312 -4.71875 2.40625 -4.71875 C 2.101562 -4.71875 1.859375 -4.648438 1.671875 -4.515625 C 1.492188 -4.378906 1.363281 -4.1875 1.28125 -3.9375 C 1.269531 -3.894531 1.253906 -3.835938 1.234375 -3.765625 C 1.222656 -3.691406 1.210938 -3.601562 1.203125 -3.5 C 1.191406 -3.394531 1.179688 -3.269531 1.171875 -3.125 C 1.171875 -2.988281 1.171875 -2.828125 1.171875 -2.640625 C 1.171875 -2.453125 1.171875 -2.285156 1.171875 -2.140625 C 1.179688 -2.003906 1.191406 -1.882812 1.203125 -1.78125 C 1.210938 -1.675781 1.222656 -1.585938 1.234375 -1.515625 C 1.253906 -1.441406 1.269531 -1.382812 1.28125 -1.34375 C 1.363281 -1.09375 1.492188 -0.898438 1.671875 -0.765625 C 1.859375 -0.628906 2.101562 -0.5625 2.40625 -0.5625 Z M 2.40625 -0.5625 "/></g></g></g><g fill="#7b167d" fill-opacity="1"><g transform="translate(33.206389, 13.161107)"><g><path d="M 0.65625 -5.203125 C 0.65625 -5.253906 0.679688 -5.28125 0.734375 -5.28125 L 1.234375 -5.28125 C 1.296875 -5.28125 1.335938 -5.253906 1.359375 -5.203125 L 2.9375 -1.640625 L 2.953125 -1.640625 L 4.5 -5.203125 C 4.519531 -5.253906 4.5625 -5.28125 4.625 -5.28125 L 5.140625 -5.28125 C 5.179688 -5.28125 5.203125 -5.253906 5.203125 -5.203125 L 5.203125 -0.078125 C 5.203125 -0.0234375 5.179688 0 5.140625 0 L 4.640625 0 C 4.585938 0 4.5625 -0.0234375 4.5625 -0.078125 L 4.5625 -3.75 L 4.546875 -3.75 L 3.234375 -0.84375 C 3.203125 -0.78125 3.15625 -0.75 3.09375 -0.75 L 2.78125 -0.75 C 2.707031 -0.75 2.65625 -0.78125 2.625 -0.84375 L 1.3125 -3.75 L 1.296875 -3.75 L 1.296875 -0.078125 C 1.296875 -0.0234375 1.269531 0 1.21875 0 L 0.734375 0 C 0.679688 0 0.65625 -0.0234375 0.65625 -0.078125 Z M 0.65625 -5.203125 "/></g></g></g><g fill="#7b167d" fill-opacity="1"><g transform="translate(40.575153, 13.161107)"><g><path d="M 0.65625 -5.203125 C 0.65625 -5.253906 0.679688 -5.28125 0.734375 -5.28125 L 1.234375 -5.28125 C 1.296875 -5.28125 1.335938 -5.253906 1.359375 -5.203125 L 2.9375 -1.640625 L 2.953125 -1.640625 L 4.5 -5.203125 C 4.519531 -5.253906 4.5625 -5.28125 4.625 -5.28125 L 5.140625 -5.28125 C 5.179688 -5.28125 5.203125 -5.253906 5.203125 -5.203125 L 5.203125 -0.078125 C 5.203125 -0.0234375 5.179688 0 5.140625 0 L 4.640625 0 C 4.585938 0 4.5625 -0.0234375 4.5625 -0.078125 L 4.5625 -3.75 L 4.546875 -3.75 L 3.234375 -0.84375 C 3.203125 -0.78125 3.15625 -0.75 3.09375 -0.75 L 2.78125 -0.75 C 2.707031 -0.75 2.65625 -0.78125 2.625 -0.84375 L 1.3125 -3.75 L 1.296875 -3.75 L 1.296875 -0.078125 C 1.296875 -0.0234375 1.269531 0 1.21875 0 L 0.734375 0 C 0.679688 0 0.65625 -0.0234375 0.65625 -0.078125 Z M 0.65625 -5.203125 "/></g></g></g><g fill="#7b167d" fill-opacity="1"><g transform="translate(47.943917, 13.161107)"><g><path d="M 2.484375 0.078125 C 1.898438 0.078125 1.441406 -0.0820312 1.109375 -0.40625 C 0.773438 -0.738281 0.609375 -1.21875 0.609375 -1.84375 L 0.609375 -5.203125 C 0.609375 -5.253906 0.632812 -5.28125 0.6875 -5.28125 L 1.234375 -5.28125 C 1.273438 -5.28125 1.296875 -5.253906 1.296875 -5.203125 L 1.296875 -1.84375 C 1.296875 -1.414062 1.40625 -1.09375 1.625 -0.875 C 1.84375 -0.664062 2.128906 -0.5625 2.484375 -0.5625 C 2.835938 -0.5625 3.117188 -0.664062 3.328125 -0.875 C 3.546875 -1.09375 3.65625 -1.414062 3.65625 -1.84375 L 3.65625 -5.203125 C 3.65625 -5.253906 3.679688 -5.28125 3.734375 -5.28125 L 4.265625 -5.28125 C 4.316406 -5.28125 4.34375 -5.253906 4.34375 -5.203125 L 4.34375 -1.84375 C 4.34375 -1.21875 4.175781 -0.738281 3.84375 -0.40625 C 3.519531 -0.0820312 3.066406 0.078125 2.484375 0.078125 Z M 2.484375 0.078125 "/></g></g></g><g fill="#7b167d" fill-opacity="1"><g transform="translate(54.411025, 13.161107)"><g><path d="M 0.65625 -5.203125 C 0.65625 -5.253906 0.679688 -5.28125 0.734375 -5.28125 L 1.234375 -5.28125 C 1.285156 -5.28125 1.328125 -5.253906 1.359375 -5.203125 L 3.75 -1.25 L 3.78125 -1.25 L 3.78125 -5.203125 C 3.78125 -5.253906 3.804688 -5.28125 3.859375 -5.28125 L 4.34375 -5.28125 C 4.394531 -5.28125 4.421875 -5.253906 4.421875 -5.203125 L 4.421875 -0.078125 C 4.421875 -0.0234375 4.394531 0 4.34375 0 L 3.859375 0 C 3.796875 0 3.75 -0.0234375 3.71875 -0.078125 L 1.3125 -4.015625 L 1.296875 -4.015625 L 1.296875 -0.078125 C 1.296875 -0.0234375 1.269531 0 1.21875 0 L 0.734375 0 C 0.679688 0 0.65625 -0.0234375 0.65625 -0.078125 Z M 0.65625 -5.203125 "/></g></g></g><g fill="#7b167d" fill-opacity="1"><g transform="translate(60.994723, 13.161107)"><g><path d="M 0.65625 -5.203125 C 0.65625 -5.253906 0.679688 -5.28125 0.734375 -5.28125 L 1.265625 -5.28125 C 1.316406 -5.28125 1.34375 -5.253906 1.34375 -5.203125 L 1.34375 -0.078125 C 1.34375 -0.0234375 1.316406 0 1.265625 0 L 0.734375 0 C 0.679688 0 0.65625 -0.0234375 0.65625 -0.078125 Z M 0.65625 -5.203125 "/></g></g></g><g fill="#7b167d" fill-opacity="1"><g transform="translate(64.492547, 13.161107)"><g><path d="M 1.8125 0 C 1.757812 0 1.734375 -0.0234375 1.734375 -0.078125 L 1.734375 -4.59375 C 1.734375 -4.625 1.71875 -4.640625 1.6875 -4.640625 L 0.25 -4.640625 C 0.195312 -4.640625 0.171875 -4.664062 0.171875 -4.71875 L 0.171875 -5.203125 C 0.171875 -5.253906 0.195312 -5.28125 0.25 -5.28125 L 3.921875 -5.28125 C 3.972656 -5.28125 4 -5.253906 4 -5.203125 L 4 -4.71875 C 4 -4.664062 3.972656 -4.640625 3.921875 -4.640625 L 2.484375 -4.640625 C 2.453125 -4.640625 2.4375 -4.625 2.4375 -4.59375 L 2.4375 -0.078125 C 2.4375 -0.0234375 2.410156 0 2.359375 0 Z M 1.8125 0 "/></g></g></g><g clip-path="url(#c393407c7d)"><g fill="#7b167d" fill-opacity="1"><g transform="translate(70.166808, 13.161107)"><g><path d="M 1.78125 0 C 1.726562 0 1.703125 -0.0234375 1.703125 -0.078125 L 1.703125 -2.15625 L 0.140625 -5.1875 C 0.117188 -5.25 0.140625 -5.28125 0.203125 -5.28125 L 0.75 -5.28125 C 0.800781 -5.28125 0.84375 -5.253906 0.875 -5.203125 L 2.046875 -2.9375 L 2.0625 -2.9375 L 3.234375 -5.203125 C 3.253906 -5.253906 3.289062 -5.28125 3.34375 -5.28125 L 3.875 -5.28125 C 3.9375 -5.28125 3.957031 -5.25 3.9375 -5.1875 L 2.390625 -2.15625 L 2.390625 -0.078125 C 2.390625 -0.0234375 2.363281 0 2.3125 0 Z M 1.78125 0 "/></g></g></g></g><g fill="#7b167d" fill-opacity="1"><g transform="translate(25.048183, 21.996324)"><g><path d="M 2.25 0.078125 C 2.0625 0.078125 1.875 0.0625 1.6875 0.03125 C 1.507812 0 1.34375 -0.046875 1.1875 -0.109375 C 1.03125 -0.171875 0.882812 -0.238281 0.75 -0.3125 C 0.613281 -0.394531 0.492188 -0.484375 0.390625 -0.578125 C 0.359375 -0.609375 0.359375 -0.644531 0.390625 -0.6875 L 0.734375 -1.09375 C 0.765625 -1.132812 0.800781 -1.140625 0.84375 -1.109375 C 1.007812 -0.972656 1.21875 -0.847656 1.46875 -0.734375 C 1.726562 -0.617188 2.007812 -0.5625 2.3125 -0.5625 C 2.675781 -0.5625 2.960938 -0.644531 3.171875 -0.8125 C 3.378906 -0.976562 3.484375 -1.191406 3.484375 -1.453125 C 3.484375 -1.566406 3.460938 -1.671875 3.421875 -1.765625 C 3.390625 -1.859375 3.328125 -1.941406 3.234375 -2.015625 C 3.148438 -2.085938 3.035156 -2.148438 2.890625 -2.203125 C 2.753906 -2.253906 2.582031 -2.296875 2.375 -2.328125 L 2.109375 -2.359375 C 1.078125 -2.503906 0.5625 -2.992188 0.5625 -3.828125 C 0.5625 -4.054688 0.597656 -4.265625 0.671875 -4.453125 C 0.753906 -4.648438 0.867188 -4.816406 1.015625 -4.953125 C 1.171875 -5.085938 1.351562 -5.1875 1.5625 -5.25 C 1.78125 -5.320312 2.019531 -5.359375 2.28125 -5.359375 C 2.59375 -5.359375 2.890625 -5.3125 3.171875 -5.21875 C 3.453125 -5.132812 3.691406 -5.019531 3.890625 -4.875 C 3.929688 -4.84375 3.9375 -4.804688 3.90625 -4.765625 L 3.640625 -4.34375 C 3.609375 -4.300781 3.570312 -4.296875 3.53125 -4.328125 C 3.3125 -4.460938 3.097656 -4.5625 2.890625 -4.625 C 2.691406 -4.6875 2.484375 -4.71875 2.265625 -4.71875 C 1.929688 -4.71875 1.679688 -4.640625 1.515625 -4.484375 C 1.347656 -4.328125 1.265625 -4.125 1.265625 -3.875 C 1.265625 -3.644531 1.34375 -3.457031 1.5 -3.3125 C 1.664062 -3.175781 1.957031 -3.078125 2.375 -3.015625 L 2.625 -2.984375 C 3.144531 -2.910156 3.53125 -2.753906 3.78125 -2.515625 C 4.039062 -2.273438 4.171875 -1.9375 4.171875 -1.5 C 4.171875 -1.269531 4.128906 -1.054688 4.046875 -0.859375 C 3.972656 -0.671875 3.851562 -0.503906 3.6875 -0.359375 C 3.53125 -0.222656 3.328125 -0.113281 3.078125 -0.03125 C 2.835938 0.0390625 2.5625 0.078125 2.25 0.078125 Z M 2.25 0.078125 "/></g></g></g><g fill="#7b167d" fill-opacity="1"><g transform="translate(31.142187, 21.996324)"><g><path d="M 0.609375 -1.15625 C 0.578125 -1.238281 0.550781 -1.316406 0.53125 -1.390625 C 0.519531 -1.472656 0.507812 -1.566406 0.5 -1.671875 C 0.488281 -1.785156 0.476562 -1.921875 0.46875 -2.078125 C 0.46875 -2.234375 0.46875 -2.421875 0.46875 -2.640625 C 0.46875 -2.859375 0.46875 -3.046875 0.46875 -3.203125 C 0.476562 -3.359375 0.488281 -3.488281 0.5 -3.59375 C 0.507812 -3.707031 0.519531 -3.800781 0.53125 -3.875 C 0.550781 -3.957031 0.578125 -4.039062 0.609375 -4.125 C 0.742188 -4.539062 0.957031 -4.847656 1.25 -5.046875 C 1.550781 -5.253906 1.921875 -5.359375 2.359375 -5.359375 C 2.753906 -5.359375 3.097656 -5.265625 3.390625 -5.078125 C 3.679688 -4.898438 3.898438 -4.640625 4.046875 -4.296875 C 4.066406 -4.253906 4.054688 -4.222656 4.015625 -4.203125 L 3.5625 -3.96875 C 3.507812 -3.945312 3.472656 -3.960938 3.453125 -4.015625 C 3.347656 -4.222656 3.207031 -4.390625 3.03125 -4.515625 C 2.863281 -4.648438 2.640625 -4.71875 2.359375 -4.71875 C 2.066406 -4.71875 1.832031 -4.648438 1.65625 -4.515625 C 1.476562 -4.378906 1.347656 -4.1875 1.265625 -3.9375 C 1.253906 -3.882812 1.238281 -3.828125 1.21875 -3.765625 C 1.207031 -3.703125 1.195312 -3.617188 1.1875 -3.515625 C 1.1875 -3.421875 1.179688 -3.300781 1.171875 -3.15625 C 1.171875 -3.019531 1.171875 -2.847656 1.171875 -2.640625 C 1.171875 -2.429688 1.171875 -2.253906 1.171875 -2.109375 C 1.179688 -1.972656 1.1875 -1.851562 1.1875 -1.75 C 1.195312 -1.65625 1.207031 -1.570312 1.21875 -1.5 C 1.238281 -1.4375 1.253906 -1.378906 1.265625 -1.328125 C 1.347656 -1.085938 1.476562 -0.898438 1.65625 -0.765625 C 1.832031 -0.628906 2.066406 -0.5625 2.359375 -0.5625 C 2.640625 -0.5625 2.863281 -0.625 3.03125 -0.75 C 3.207031 -0.882812 3.347656 -1.054688 3.453125 -1.265625 C 3.472656 -1.316406 3.507812 -1.328125 3.5625 -1.296875 L 4.015625 -1.078125 C 4.054688 -1.054688 4.066406 -1.023438 4.046875 -0.984375 C 3.898438 -0.640625 3.679688 -0.375 3.390625 -0.1875 C 3.097656 -0.0078125 2.753906 0.078125 2.359375 0.078125 C 1.921875 0.078125 1.550781 -0.0195312 1.25 -0.21875 C 0.957031 -0.425781 0.742188 -0.738281 0.609375 -1.15625 Z M 0.609375 -1.15625 "/></g></g></g><g fill="#7b167d" fill-opacity="1"><g transform="translate(37.041867, 21.996324)"><g><path d="M 0.65625 -5.203125 C 0.65625 -5.253906 0.679688 -5.28125 0.734375 -5.28125 L 1.265625 -5.28125 C 1.316406 -5.28125 1.34375 -5.253906 1.34375 -5.203125 L 1.34375 -0.078125 C 1.34375 -0.0234375 1.316406 0 1.265625 0 L 0.734375 0 C 0.679688 0 0.65625 -0.0234375 0.65625 -0.078125 Z M 0.65625 -5.203125 "/></g></g></g><g fill="#7b167d" fill-opacity="1"><g transform="translate(40.539689, 21.996324)"><g><path d="M 0.65625 -5.203125 C 0.65625 -5.253906 0.679688 -5.28125 0.734375 -5.28125 L 3.90625 -5.28125 C 3.957031 -5.28125 3.984375 -5.253906 3.984375 -5.203125 L 3.984375 -4.71875 C 3.984375 -4.664062 3.957031 -4.640625 3.90625 -4.640625 L 1.390625 -4.640625 C 1.359375 -4.640625 1.34375 -4.625 1.34375 -4.59375 L 1.34375 -3.03125 C 1.34375 -3 1.359375 -2.984375 1.390625 -2.984375 L 3.53125 -2.984375 C 3.582031 -2.984375 3.609375 -2.957031 3.609375 -2.90625 L 3.609375 -2.421875 C 3.609375 -2.367188 3.582031 -2.34375 3.53125 -2.34375 L 1.390625 -2.34375 C 1.359375 -2.34375 1.34375 -2.328125 1.34375 -2.296875 L 1.34375 -0.6875 C 1.34375 -0.65625 1.359375 -0.640625 1.390625 -0.640625 L 3.90625 -0.640625 C 3.957031 -0.640625 3.984375 -0.613281 3.984375 -0.5625 L 3.984375 -0.078125 C 3.984375 -0.0234375 3.957031 0 3.90625 0 L 0.734375 0 C 0.679688 0 0.65625 -0.0234375 0.65625 -0.078125 Z M 0.65625 -5.203125 "/></g></g></g><g fill="#7b167d" fill-opacity="1"><g transform="translate(46.416043, 21.996324)"><g><path d="M 0.65625 -5.203125 C 0.65625 -5.253906 0.679688 -5.28125 0.734375 -5.28125 L 1.234375 -5.28125 C 1.285156 -5.28125 1.328125 -5.253906 1.359375 -5.203125 L 3.75 -1.25 L 3.78125 -1.25 L 3.78125 -5.203125 C 3.78125 -5.253906 3.804688 -5.28125 3.859375 -5.28125 L 4.34375 -5.28125 C 4.394531 -5.28125 4.421875 -5.253906 4.421875 -5.203125 L 4.421875 -0.078125 C 4.421875 -0.0234375 4.394531 0 4.34375 0 L 3.859375 0 C 3.796875 0 3.75 -0.0234375 3.71875 -0.078125 L 1.3125 -4.015625 L 1.296875 -4.015625 L 1.296875 -0.078125 C 1.296875 -0.0234375 1.269531 0 1.21875 0 L 0.734375 0 C 0.679688 0 0.65625 -0.0234375 0.65625 -0.078125 Z M 0.65625 -5.203125 "/></g></g></g><g fill="#7b167d" fill-opacity="1"><g transform="translate(52.99974, 21.996324)"><g><path d="M 0.609375 -1.15625 C 0.578125 -1.238281 0.550781 -1.316406 0.53125 -1.390625 C 0.519531 -1.472656 0.507812 -1.566406 0.5 -1.671875 C 0.488281 -1.785156 0.476562 -1.921875 0.46875 -2.078125 C 0.46875 -2.234375 0.46875 -2.421875 0.46875 -2.640625 C 0.46875 -2.859375 0.46875 -3.046875 0.46875 -3.203125 C 0.476562 -3.359375 0.488281 -3.488281 0.5 -3.59375 C 0.507812 -3.707031 0.519531 -3.800781 0.53125 -3.875 C 0.550781 -3.957031 0.578125 -4.039062 0.609375 -4.125 C 0.742188 -4.539062 0.957031 -4.847656 1.25 -5.046875 C 1.550781 -5.253906 1.921875 -5.359375 2.359375 -5.359375 C 2.753906 -5.359375 3.097656 -5.265625 3.390625 -5.078125 C 3.679688 -4.898438 3.898438 -4.640625 4.046875 -4.296875 C 4.066406 -4.253906 4.054688 -4.222656 4.015625 -4.203125 L 3.5625 -3.96875 C 3.507812 -3.945312 3.472656 -3.960938 3.453125 -4.015625 C 3.347656 -4.222656 3.207031 -4.390625 3.03125 -4.515625 C 2.863281 -4.648438 2.640625 -4.71875 2.359375 -4.71875 C 2.066406 -4.71875 1.832031 -4.648438 1.65625 -4.515625 C 1.476562 -4.378906 1.347656 -4.1875 1.265625 -3.9375 C 1.253906 -3.882812 1.238281 -3.828125 1.21875 -3.765625 C 1.207031 -3.703125 1.195312 -3.617188 1.1875 -3.515625 C 1.1875 -3.421875 1.179688 -3.300781 1.171875 -3.15625 C 1.171875 -3.019531 1.171875 -2.847656 1.171875 -2.640625 C 1.171875 -2.429688 1.171875 -2.253906 1.171875 -2.109375 C 1.179688 -1.972656 1.1875 -1.851562 1.1875 -1.75 C 1.195312 -1.65625 1.207031 -1.570312 1.21875 -1.5 C 1.238281 -1.4375 1.253906 -1.378906 1.265625 -1.328125 C 1.347656 -1.085938 1.476562 -0.898438 1.65625 -0.765625 C 1.832031 -0.628906 2.066406 -0.5625 2.359375 -0.5625 C 2.640625 -0.5625 2.863281 -0.625 3.03125 -0.75 C 3.207031 -0.882812 3.347656 -1.054688 3.453125 -1.265625 C 3.472656 -1.316406 3.507812 -1.328125 3.5625 -1.296875 L 4.015625 -1.078125 C 4.054688 -1.054688 4.066406 -1.023438 4.046875 -0.984375 C 3.898438 -0.640625 3.679688 -0.375 3.390625 -0.1875 C 3.097656 -0.0078125 2.753906 0.078125 2.359375 0.078125 C 1.921875 0.078125 1.550781 -0.0195312 1.25 -0.21875 C 0.957031 -0.425781 0.742188 -0.738281 0.609375 -1.15625 Z M 0.609375 -1.15625 "/></g></g></g><g fill="#7b167d" fill-opacity="1"><g transform="translate(58.89942, 21.996324)"><g><path d="M 0.65625 -5.203125 C 0.65625 -5.253906 0.679688 -5.28125 0.734375 -5.28125 L 3.90625 -5.28125 C 3.957031 -5.28125 3.984375 -5.253906 3.984375 -5.203125 L 3.984375 -4.71875 C 3.984375 -4.664062 3.957031 -4.640625 3.90625 -4.640625 L 1.390625 -4.640625 C 1.359375 -4.640625 1.34375 -4.625 1.34375 -4.59375 L 1.34375 -3.03125 C 1.34375 -3 1.359375 -2.984375 1.390625 -2.984375 L 3.53125 -2.984375 C 3.582031 -2.984375 3.609375 -2.957031 3.609375 -2.90625 L 3.609375 -2.421875 C 3.609375 -2.367188 3.582031 -2.34375 3.53125 -2.34375 L 1.390625 -2.34375 C 1.359375 -2.34375 1.34375 -2.328125 1.34375 -2.296875 L 1.34375 -0.6875 C 1.34375 -0.65625 1.359375 -0.640625 1.390625 -0.640625 L 3.90625 -0.640625 C 3.957031 -0.640625 3.984375 -0.613281 3.984375 -0.5625 L 3.984375 -0.078125 C 3.984375 -0.0234375 3.957031 0 3.90625 0 L 0.734375 0 C 0.679688 0 0.65625 -0.0234375 0.65625 -0.078125 Z M 0.65625 -5.203125 "/></g></g></g><g fill="#7b167d" fill-opacity="1"><g transform="translate(28.008709, 30.831543)"><g><path d="M 0.65625 -5.203125 C 0.65625 -5.253906 0.679688 -5.28125 0.734375 -5.28125 L 1.234375 -5.28125 C 1.296875 -5.28125 1.335938 -5.253906 1.359375 -5.203125 L 2.9375 -1.640625 L 2.953125 -1.640625 L 4.5 -5.203125 C 4.519531 -5.253906 4.5625 -5.28125 4.625 -5.28125 L 5.140625 -5.28125 C 5.179688 -5.28125 5.203125 -5.253906 5.203125 -5.203125 L 5.203125 -0.078125 C 5.203125 -0.0234375 5.179688 0 5.140625 0 L 4.640625 0 C 4.585938 0 4.5625 -0.0234375 4.5625 -0.078125 L 4.5625 -3.75 L 4.546875 -3.75 L 3.234375 -0.84375 C 3.203125 -0.78125 3.15625 -0.75 3.09375 -0.75 L 2.78125 -0.75 C 2.707031 -0.75 2.65625 -0.78125 2.625 -0.84375 L 1.3125 -3.75 L 1.296875 -3.75 L 1.296875 -0.078125 C 1.296875 -0.0234375 1.269531 0 1.21875 0 L 0.734375 0 C 0.679688 0 0.65625 -0.0234375 0.65625 -0.078125 Z M 0.65625 -5.203125 "/></g></g></g><g fill="#7b167d" fill-opacity="1"><g transform="translate(35.377474, 30.831543)"><g><path d="M 2.484375 0.078125 C 1.898438 0.078125 1.441406 -0.0820312 1.109375 -0.40625 C 0.773438 -0.738281 0.609375 -1.21875 0.609375 -1.84375 L 0.609375 -5.203125 C 0.609375 -5.253906 0.632812 -5.28125 0.6875 -5.28125 L 1.234375 -5.28125 C 1.273438 -5.28125 1.296875 -5.253906 1.296875 -5.203125 L 1.296875 -1.84375 C 1.296875 -1.414062 1.40625 -1.09375 1.625 -0.875 C 1.84375 -0.664062 2.128906 -0.5625 2.484375 -0.5625 C 2.835938 -0.5625 3.117188 -0.664062 3.328125 -0.875 C 3.546875 -1.09375 3.65625 -1.414062 3.65625 -1.84375 L 3.65625 -5.203125 C 3.65625 -5.253906 3.679688 -5.28125 3.734375 -5.28125 L 4.265625 -5.28125 C 4.316406 -5.28125 4.34375 -5.253906 4.34375 -5.203125 L 4.34375 -1.84375 C 4.34375 -1.21875 4.175781 -0.738281 3.84375 -0.40625 C 3.519531 -0.0820312 3.066406 0.078125 2.484375 0.078125 Z M 2.484375 0.078125 "/></g></g></g><g fill="#7b167d" fill-opacity="1"><g transform="translate(41.84458, 30.831543)"><g><path d="M 2.25 0.078125 C 2.0625 0.078125 1.875 0.0625 1.6875 0.03125 C 1.507812 0 1.34375 -0.046875 1.1875 -0.109375 C 1.03125 -0.171875 0.882812 -0.238281 0.75 -0.3125 C 0.613281 -0.394531 0.492188 -0.484375 0.390625 -0.578125 C 0.359375 -0.609375 0.359375 -0.644531 0.390625 -0.6875 L 0.734375 -1.09375 C 0.765625 -1.132812 0.800781 -1.140625 0.84375 -1.109375 C 1.007812 -0.972656 1.21875 -0.847656 1.46875 -0.734375 C 1.726562 -0.617188 2.007812 -0.5625 2.3125 -0.5625 C 2.675781 -0.5625 2.960938 -0.644531 3.171875 -0.8125 C 3.378906 -0.976562 3.484375 -1.191406 3.484375 -1.453125 C 3.484375 -1.566406 3.460938 -1.671875 3.421875 -1.765625 C 3.390625 -1.859375 3.328125 -1.941406 3.234375 -2.015625 C 3.148438 -2.085938 3.035156 -2.148438 2.890625 -2.203125 C 2.753906 -2.253906 2.582031 -2.296875 2.375 -2.328125 L 2.109375 -2.359375 C 1.078125 -2.503906 0.5625 -2.992188 0.5625 -3.828125 C 0.5625 -4.054688 0.597656 -4.265625 0.671875 -4.453125 C 0.753906 -4.648438 0.867188 -4.816406 1.015625 -4.953125 C 1.171875 -5.085938 1.351562 -5.1875 1.5625 -5.25 C 1.78125 -5.320312 2.019531 -5.359375 2.28125 -5.359375 C 2.59375 -5.359375 2.890625 -5.3125 3.171875 -5.21875 C 3.453125 -5.132812 3.691406 -5.019531 3.890625 -4.875 C 3.929688 -4.84375 3.9375 -4.804688 3.90625 -4.765625 L 3.640625 -4.34375 C 3.609375 -4.300781 3.570312 -4.296875 3.53125 -4.328125 C 3.3125 -4.460938 3.097656 -4.5625 2.890625 -4.625 C 2.691406 -4.6875 2.484375 -4.71875 2.265625 -4.71875 C 1.929688 -4.71875 1.679688 -4.640625 1.515625 -4.484375 C 1.347656 -4.328125 1.265625 -4.125 1.265625 -3.875 C 1.265625 -3.644531 1.34375 -3.457031 1.5 -3.3125 C 1.664062 -3.175781 1.957031 -3.078125 2.375 -3.015625 L 2.625 -2.984375 C 3.144531 -2.910156 3.53125 -2.753906 3.78125 -2.515625 C 4.039062 -2.273438 4.171875 -1.9375 4.171875 -1.5 C 4.171875 -1.269531 4.128906 -1.054688 4.046875 -0.859375 C 3.972656 -0.671875 3.851562 -0.503906 3.6875 -0.359375 C 3.53125 -0.222656 3.328125 -0.113281 3.078125 -0.03125 C 2.835938 0.0390625 2.5625 0.078125 2.25 0.078125 Z M 2.25 0.078125 "/></g></g></g><g fill="#7b167d" fill-opacity="1"><g transform="translate(47.938585, 30.831543)"><g><path d="M 0.65625 -5.203125 C 0.65625 -5.253906 0.679688 -5.28125 0.734375 -5.28125 L 3.90625 -5.28125 C 3.957031 -5.28125 3.984375 -5.253906 3.984375 -5.203125 L 3.984375 -4.71875 C 3.984375 -4.664062 3.957031 -4.640625 3.90625 -4.640625 L 1.390625 -4.640625 C 1.359375 -4.640625 1.34375 -4.625 1.34375 -4.59375 L 1.34375 -3.03125 C 1.34375 -3 1.359375 -2.984375 1.390625 -2.984375 L 3.53125 -2.984375 C 3.582031 -2.984375 3.609375 -2.957031 3.609375 -2.90625 L 3.609375 -2.421875 C 3.609375 -2.367188 3.582031 -2.34375 3.53125 -2.34375 L 1.390625 -2.34375 C 1.359375 -2.34375 1.34375 -2.328125 1.34375 -2.296875 L 1.34375 -0.6875 C 1.34375 -0.65625 1.359375 -0.640625 1.390625 -0.640625 L 3.90625 -0.640625 C 3.957031 -0.640625 3.984375 -0.613281 3.984375 -0.5625 L 3.984375 -0.078125 C 3.984375 -0.0234375 3.957031 0 3.90625 0 L 0.734375 0 C 0.679688 0 0.65625 -0.0234375 0.65625 -0.078125 Z M 0.65625 -5.203125 "/></g></g></g><g fill="#7b167d" fill-opacity="1"><g transform="translate(53.814938, 30.831543)"><g><path d="M 2.484375 0.078125 C 1.898438 0.078125 1.441406 -0.0820312 1.109375 -0.40625 C 0.773438 -0.738281 0.609375 -1.21875 0.609375 -1.84375 L 0.609375 -5.203125 C 0.609375 -5.253906 0.632812 -5.28125 0.6875 -5.28125 L 1.234375 -5.28125 C 1.273438 -5.28125 1.296875 -5.253906 1.296875 -5.203125 L 1.296875 -1.84375 C 1.296875 -1.414062 1.40625 -1.09375 1.625 -0.875 C 1.84375 -0.664062 2.128906 -0.5625 2.484375 -0.5625 C 2.835938 -0.5625 3.117188 -0.664062 3.328125 -0.875 C 3.546875 -1.09375 3.65625 -1.414062 3.65625 -1.84375 L 3.65625 -5.203125 C 3.65625 -5.253906 3.679688 -5.28125 3.734375 -5.28125 L 4.265625 -5.28125 C 4.316406 -5.28125 4.34375 -5.253906 4.34375 -5.203125 L 4.34375 -1.84375 C 4.34375 -1.21875 4.175781 -0.738281 3.84375 -0.40625 C 3.519531 -0.0820312 3.066406 0.078125 2.484375 0.078125 Z M 2.484375 0.078125 "/></g></g></g><g fill="#7b167d" fill-opacity="1"><g transform="translate(60.282046, 30.831543)"><g><path d="M 0.65625 -5.203125 C 0.65625 -5.253906 0.679688 -5.28125 0.734375 -5.28125 L 1.234375 -5.28125 C 1.296875 -5.28125 1.335938 -5.253906 1.359375 -5.203125 L 2.9375 -1.640625 L 2.953125 -1.640625 L 4.5 -5.203125 C 4.519531 -5.253906 4.5625 -5.28125 4.625 -5.28125 L 5.140625 -5.28125 C 5.179688 -5.28125 5.203125 -5.253906 5.203125 -5.203125 L 5.203125 -0.078125 C 5.203125 -0.0234375 5.179688 0 5.140625 0 L 4.640625 0 C 4.585938 0 4.5625 -0.0234375 4.5625 -0.078125 L 4.5625 -3.75 L 4.546875 -3.75 L 3.234375 -0.84375 C 3.203125 -0.78125 3.15625 -0.75 3.09375 -0.75 L 2.78125 -0.75 C 2.707031 -0.75 2.65625 -0.78125 2.625 -0.84375 L 1.3125 -3.75 L 1.296875 -3.75 L 1.296875 -0.078125 C 1.296875 -0.0234375 1.269531 0 1.21875 0 L 0.734375 0 C 0.679688 0 0.65625 -0.0234375 0.65625 -0.078125 Z M 0.65625 -5.203125 "/></g></g></g></svg>