<svg width="48" height="48" viewBox="0 0 48 48" fill="none" xmlns="http://www.w3.org/2000/svg">
<circle cx="24" cy="24" r="24" fill="#0F90F2"/>
<path d="M31.2352 14.1346H24.8544V10.5614H29.1933C29.3964 10.5614 29.5911 10.4807 29.7347 10.3371C29.8783 10.1936 29.959 9.9988 29.959 9.79572C29.959 9.59265 29.8783 9.39789 29.7347 9.2543C29.5911 9.1107 29.3964 9.03003 29.1933 9.03003H18.9841C18.781 9.03003 18.5862 9.1107 18.4427 9.2543C18.2991 9.39789 18.2184 9.59265 18.2184 9.79572C18.2184 9.9988 18.2991 10.1936 18.4427 10.3371C18.5862 10.4807 18.781 10.5614 18.9841 10.5614H23.323V14.1346H16.9422C15.9269 14.1346 14.9531 14.538 14.2351 15.256C13.5171 15.974 13.1138 16.9477 13.1138 17.9631V31.2351C13.1138 32.2505 13.5171 33.2243 14.2351 33.9422C14.9531 34.6602 15.9269 35.0636 16.9422 35.0636H18.4736L16.3297 37.9222C16.2693 38.0026 16.2255 38.0941 16.2005 38.1915C16.1755 38.2889 16.17 38.3903 16.1842 38.4899C16.1985 38.5894 16.2321 38.6852 16.2834 38.7717C16.3346 38.8582 16.4024 38.9338 16.4828 38.9941C16.5633 39.0545 16.6548 39.0984 16.7522 39.1233C16.8496 39.1483 16.951 39.1538 17.0505 39.1396C17.1501 39.1253 17.2458 39.0917 17.3323 39.0404C17.4189 38.9892 17.4945 38.9214 17.5548 38.841L20.3878 35.0636H27.7895L30.6226 38.841C30.7444 39.0034 30.9258 39.1108 31.1269 39.1396C31.3279 39.1683 31.5321 39.116 31.6946 38.9941C31.857 38.8723 31.9644 38.6909 31.9932 38.4899C32.0219 38.2888 31.9696 38.0846 31.8477 37.9222L29.7038 35.0636H31.2352C32.2505 35.0636 33.2243 34.6602 33.9423 33.9422C34.6603 33.2243 35.0636 32.2505 35.0636 31.2351V17.9631C35.0636 16.9477 34.6603 15.974 33.9423 15.256C33.2243 14.538 32.2505 14.1346 31.2352 14.1346ZM16.9422 15.666H31.2352C31.8444 15.666 32.4286 15.908 32.8594 16.3388C33.2902 16.7696 33.5322 17.3539 33.5322 17.9631V23.323H14.6452V17.9631C14.6452 17.3539 14.8872 16.7696 15.318 16.3388C15.7487 15.908 16.333 15.666 16.9422 15.666ZM31.2352 33.5322H16.9422C16.333 33.5322 15.7487 33.2902 15.318 32.8594C14.8872 32.4286 14.6452 31.8443 14.6452 31.2351V24.8543H33.5322V31.2351C33.5322 31.8443 33.2902 32.4286 32.8594 32.8594C32.4286 33.2902 31.8444 33.5322 31.2352 33.5322ZM19.7498 29.7037C19.7498 29.9561 19.6749 30.2029 19.5347 30.4127C19.3945 30.6226 19.1952 30.7861 18.962 30.8827C18.7288 30.9793 18.4722 31.0046 18.2247 30.9554C17.9771 30.9061 17.7497 30.7846 17.5712 30.6061C17.3928 30.4276 17.2712 30.2002 17.222 29.9527C17.1727 29.7051 17.198 29.4485 17.2946 29.2154C17.3912 28.9822 17.5548 28.7829 17.7646 28.6426C17.9745 28.5024 18.2212 28.4276 18.4736 28.4276C18.8121 28.4276 19.1367 28.562 19.376 28.8013C19.6153 29.0407 19.7498 29.3653 19.7498 29.7037ZM30.9799 29.7037C30.9799 29.9561 30.9051 30.2029 30.7649 30.4127C30.6246 30.6226 30.4253 30.7861 30.1921 30.8827C29.9589 30.9793 29.7024 31.0046 29.4548 30.9554C29.2073 30.9061 28.9799 30.7846 28.8014 30.6061C28.6229 30.4276 28.5014 30.2002 28.4521 29.9527C28.4029 29.7051 28.4282 29.4485 28.5248 29.2154C28.6213 28.9822 28.7849 28.7829 28.9948 28.6426C29.2046 28.5024 29.4514 28.4276 29.7038 28.4276C30.0422 28.4276 30.3668 28.562 30.6061 28.8013C30.8455 29.0407 30.9799 29.3653 30.9799 29.7037Z" fill="white"/>
</svg>
