<svg width="48" height="48" viewBox="0 0 48 48" fill="none" xmlns="http://www.w3.org/2000/svg">
<circle cx="24" cy="24" r="24" fill="#CF0CBE"/>
<path d="M13.1249 30.8204C13.1249 31.5424 13.4117 32.2348 13.9223 32.7454C14.4328 33.2559 15.1253 33.5428 15.8473 33.5428C16.5693 33.5428 17.2618 33.2559 17.7723 32.7454C18.2829 32.2348 18.5697 31.5424 18.5697 30.8204C18.5697 30.0983 18.2829 29.4059 17.7723 28.8953C17.2618 28.3848 16.5693 28.098 15.8473 28.098C15.1253 28.098 14.4328 28.3848 13.9223 28.8953C13.4117 29.4059 13.1249 30.0983 13.1249 30.8204ZM29.4593 30.8204C29.4593 31.5424 29.7461 32.2348 30.2566 32.7454C30.7672 33.2559 31.4597 33.5428 32.1817 33.5428C32.9037 33.5428 33.5962 33.2559 34.1067 32.7454C34.6173 32.2348 34.9041 31.5424 34.9041 30.8204C34.9041 30.0983 34.6173 29.4059 34.1067 28.8953C33.5962 28.3848 32.9037 28.098 32.1817 28.098C31.4597 28.098 30.7672 28.3848 30.2566 28.8953C29.7461 29.4059 29.4593 30.0983 29.4593 30.8204Z" stroke="white" stroke-width="1.5" stroke-linecap="round" stroke-linejoin="round"/>
<path d="M13.1249 30.8204H10.4025V15.8472C10.4025 15.4861 10.5459 15.1399 10.8012 14.8846C11.0564 14.6294 11.4027 14.486 11.7637 14.486H30.8205C32.6255 14.486 34.3567 15.4898 35.633 17.2768C36.9094 19.0637 37.6265 21.4873 37.6265 24.0144V30.8204H34.9041M29.4593 30.8204H18.5697" stroke="white" stroke-width="1.5" stroke-linecap="round" stroke-linejoin="round"/>
<path d="M29.4593 14.486L31.5011 24.0144H37.6265M10.4025 21.292H30.8205M17.2085 14.486V21.292M24.0145 14.486V21.292" stroke="white" stroke-width="1.5" stroke-linecap="round" stroke-linejoin="round"/>
</svg>
