<svg width="24" height="24" viewBox="0 0 24 24" fill="none" xmlns="http://www.w3.org/2000/svg">
<circle cx="12" cy="12" r="12" fill="#FA9702"/>
<g clip-path="url(#clip0_379_5143)">
<path d="M17.1236 5.46384C17.657 5.88201 18.0245 6.55746 18.1748 7.26475C18.193 7.27051 18.2107 7.27761 18.2279 7.28599L19.8981 8.05862C19.9915 8.10149 20.0706 8.17018 20.1262 8.25658C20.1817 8.34298 20.2114 8.44348 20.2117 8.54621V18.6468C20.2111 18.7307 20.1911 18.8133 20.1532 18.8882C20.1153 18.9631 20.0606 19.0281 19.9933 19.0783C19.9261 19.1285 19.8481 19.1624 19.7656 19.1774C19.683 19.1923 19.5981 19.188 19.5175 19.1646L14.8874 17.8578L9.38259 19.3753C9.28327 19.4026 9.17829 19.4015 9.07958 19.3721L4.26409 17.9387C4.15278 17.906 4.05499 17.8383 3.98525 17.7456C3.9155 17.6529 3.87752 17.5402 3.87695 17.4242V7.14224C3.87695 6.78288 4.22652 6.52479 4.57526 6.62606L9.23231 7.98266L11.5992 7.25822C11.6318 7.2486 11.6651 7.24177 11.6989 7.2378C11.7903 6.70202 12.046 6.18747 12.4748 5.686C12.9836 5.08978 13.8763 4.74021 14.7461 4.69856C15.6486 4.65527 16.3379 4.84802 17.1228 5.46303L17.1236 5.46384ZM4.96567 7.86342V17.0231L8.94318 18.2066V9.02074L4.96567 7.86342ZM11.6703 8.3649L10.0319 8.86556V18.0776L14.1687 16.939V14.2479C14.1687 13.9506 14.4129 13.7096 14.7134 13.7096C15.014 13.7096 15.2574 13.9506 15.2574 14.2487V16.8435L19.123 17.9338V8.88843L18.2083 8.46372C18.1927 8.55356 18.1731 8.64177 18.1486 8.72753C17.971 9.35377 17.6731 9.9394 17.2715 10.4517L15.2484 12.9778C15.1951 13.0443 15.1271 13.0973 15.0497 13.1328C14.9723 13.1683 14.8877 13.1853 14.8026 13.1824C14.7176 13.1794 14.6343 13.1567 14.5596 13.1159C14.4848 13.0752 14.4206 13.0175 14.372 12.9476L12.4813 10.2091C12.1693 9.77296 11.9504 9.38419 11.8271 9.03626C11.7497 8.8191 11.6971 8.59388 11.6703 8.3649ZM14.7984 5.77502C14.2054 5.80361 13.5961 6.04209 13.3062 6.38104C12.9575 6.78941 12.7859 7.17164 12.7516 7.55878C12.7108 8.02513 12.7386 8.35428 12.8545 8.68016C12.9403 8.9211 13.111 9.22656 13.3748 9.59491L14.8539 11.7364L16.4139 9.78847C16.7286 9.38627 16.9619 8.92659 17.1008 8.43514C17.2968 7.74908 17.0011 6.74122 16.4474 6.30835C15.8797 5.86323 15.451 5.74317 14.7992 5.77502H14.7984ZM14.9111 6.34429C15.8128 6.34429 16.5446 7.0671 16.5446 7.95898C16.5434 8.17227 16.5002 8.38325 16.4175 8.57984C16.3347 8.77644 16.2141 8.95481 16.0624 9.10476C15.9107 9.25471 15.7309 9.3733 15.5334 9.45376C15.3358 9.53421 15.1244 9.57496 14.9111 9.57367C14.0094 9.57367 13.2776 8.85086 13.2776 7.95898C13.2776 7.0671 14.0094 6.34429 14.9111 6.34429ZM14.9111 7.42075C14.84 7.42032 14.7695 7.4339 14.7036 7.46071C14.6378 7.48753 14.5778 7.52706 14.5272 7.57704C14.4766 7.62702 14.4364 7.68647 14.4088 7.752C14.3812 7.81754 14.3668 7.88787 14.3663 7.95898C14.3663 8.25627 14.6105 8.49721 14.9111 8.49721C14.9822 8.49753 15.0527 8.48385 15.1185 8.45693C15.1843 8.43001 15.2442 8.3904 15.2947 8.34034C15.3452 8.29029 15.3854 8.23077 15.4129 8.1652C15.4404 8.09962 15.4547 8.02927 15.455 7.95816C15.454 7.81483 15.3961 7.67778 15.2941 7.57704C15.1922 7.4763 15.0544 7.4201 14.9111 7.42075Z" fill="white"/>
</g>
<defs>
<clipPath id="clip0_379_5143">
<rect width="16.3348" height="16.3348" fill="white" transform="translate(3.87695 3.87692)"/>
</clipPath>
</defs>
</svg>
