<svg width="48" height="48" viewBox="0 0 48 48" fill="none" xmlns="http://www.w3.org/2000/svg">
<circle cx="24" cy="24" r="24" fill="#F3BE00"/>
<circle cx="24" cy="24" r="24" fill="#F3BE00"/>
<path d="M16.3297 27.3556C16.3297 27.0307 16.4588 26.7191 16.6885 26.4893C16.9183 26.2596 17.2299 26.1305 17.5548 26.1305H17.5712C17.8961 26.1305 18.2077 26.2596 18.4374 26.4893C18.6672 26.7191 18.7963 27.0307 18.7963 27.3556V27.3719C18.7963 27.6968 18.6672 28.0085 18.4374 28.2382C18.2077 28.468 17.8961 28.597 17.5712 28.597H17.5548C17.2299 28.597 16.9183 28.468 16.6885 28.2382C16.4588 28.0085 16.3297 27.6968 16.3297 27.3719V27.3556ZM17.5548 29.3974C17.2299 29.3974 16.9183 29.5265 16.6885 29.7563C16.4588 29.986 16.3297 30.2976 16.3297 30.6225V30.6389C16.3297 31.3151 16.8786 31.864 17.5548 31.864H17.5712C17.8961 31.864 18.2077 31.7349 18.4374 31.5052C18.6672 31.2754 18.7963 30.9638 18.7963 30.6389V30.6225C18.7963 30.2976 18.6672 29.986 18.4374 29.7563C18.2077 29.5265 17.8961 29.3974 17.5712 29.3974H17.5548ZM19.5967 27.3556C19.5967 27.0307 19.7257 26.7191 19.9555 26.4893C20.1852 26.2596 20.4969 26.1305 20.8218 26.1305H20.8381C21.163 26.1305 21.4746 26.2596 21.7044 26.4893C21.9341 26.7191 22.0632 27.0307 22.0632 27.3556V27.3719C22.0632 27.6968 21.9341 28.0085 21.7044 28.2382C21.4746 28.468 21.163 28.597 20.8381 28.597H20.8218C20.4969 28.597 20.1852 28.468 19.9555 28.2382C19.7257 28.0085 19.5967 27.6968 19.5967 27.3719V27.3556ZM20.8218 29.3974C20.4969 29.3974 20.1852 29.5265 19.9555 29.7563C19.7257 29.986 19.5967 30.2976 19.5967 30.6225V30.6389C19.5967 31.3151 20.1455 31.864 20.8218 31.864H20.8381C21.163 31.864 21.4746 31.7349 21.7044 31.5052C21.9341 31.2754 22.0632 30.9638 22.0632 30.6389V30.6225C22.0632 30.2976 21.9341 29.986 21.7044 29.7563C21.4746 29.5265 21.163 29.3974 20.8381 29.3974H20.8218ZM22.8636 24.0886C22.8636 23.7637 22.9927 23.4521 23.2224 23.2224C23.4522 22.9926 23.7638 22.8635 24.0887 22.8635H24.1051C24.43 22.8635 24.7416 22.9926 24.9713 23.2224C25.2011 23.4521 25.3302 23.7637 25.3302 24.0886V24.105C25.3302 24.4299 25.2011 24.7415 24.9713 24.9712C24.7416 25.201 24.43 25.3301 24.1051 25.3301H24.0887C23.7638 25.3301 23.4522 25.201 23.2224 24.9712C22.9927 24.7415 22.8636 24.4299 22.8636 24.105V24.0886ZM24.0887 26.1305C23.7638 26.1305 23.4522 26.2596 23.2224 26.4893C22.9927 26.7191 22.8636 27.0307 22.8636 27.3556V27.3719C22.8636 28.0482 23.4125 28.597 24.0887 28.597H24.1051C24.43 28.597 24.7416 28.468 24.9713 28.2382C25.2011 28.0085 25.3302 27.6968 25.3302 27.3719V27.3556C25.3302 27.0307 25.2011 26.7191 24.9713 26.4893C24.7416 26.2596 24.43 26.1305 24.1051 26.1305H24.0887ZM22.8636 30.6225C22.8636 30.2976 22.9927 29.986 23.2224 29.7563C23.4522 29.5265 23.7638 29.3974 24.0887 29.3974H24.1051C24.43 29.3974 24.7416 29.5265 24.9713 29.7563C25.2011 29.986 25.3302 30.2976 25.3302 30.6225V30.6389C25.3302 30.9638 25.2011 31.2754 24.9713 31.5052C24.7416 31.7349 24.43 31.864 24.1051 31.864H24.0887C23.7638 31.864 23.4522 31.7349 23.2224 31.5052C22.9927 31.2754 22.8636 30.9638 22.8636 30.6389V30.6225ZM27.3557 22.8635C27.0308 22.8635 26.7192 22.9926 26.4894 23.2224C26.2596 23.4521 26.1306 23.7637 26.1306 24.0886V24.105C26.1306 24.7812 26.6794 25.3301 27.3557 25.3301H27.372C27.6969 25.3301 28.0085 25.201 28.2383 24.9712C28.4681 24.7415 28.5971 24.4299 28.5971 24.105V24.0886C28.5971 23.7637 28.4681 23.4521 28.2383 23.2224C28.0085 22.9926 27.6969 22.8635 27.372 22.8635H27.3557ZM26.1306 27.3556C26.1306 27.0307 26.2596 26.7191 26.4894 26.4893C26.7192 26.2596 27.0308 26.1305 27.3557 26.1305H27.372C27.6969 26.1305 28.0085 26.2596 28.2383 26.4893C28.4681 26.7191 28.5971 27.0307 28.5971 27.3556V27.3719C28.5971 27.6968 28.4681 28.0085 28.2383 28.2382C28.0085 28.468 27.6969 28.597 27.372 28.597H27.3557C27.0308 28.597 26.7192 28.468 26.4894 28.2382C26.2596 28.0085 26.1306 27.6968 26.1306 27.3719V27.3556ZM27.3557 29.3974C27.0308 29.3974 26.7192 29.5265 26.4894 29.7563C26.2596 29.986 26.1306 30.2976 26.1306 30.6225V30.6389C26.1306 31.3151 26.6794 31.864 27.3557 31.864H27.372C27.6969 31.864 28.0085 31.7349 28.2383 31.5052C28.4681 31.2754 28.5971 30.9638 28.5971 30.6389V30.6225C28.5971 30.2976 28.4681 29.986 28.2383 29.7563C28.0085 29.5265 27.6969 29.3974 27.372 29.3974H27.3557ZM29.3975 24.0886C29.3975 23.7637 29.5266 23.4521 29.7564 23.2224C29.9861 22.9926 30.2977 22.8635 30.6226 22.8635H30.639C30.9639 22.8635 31.2755 22.9926 31.5053 23.2224C31.735 23.4521 31.8641 23.7637 31.8641 24.0886V24.105C31.8641 24.4299 31.735 24.7415 31.5053 24.9712C31.2755 25.201 30.9639 25.3301 30.639 25.3301H30.6226C30.2977 25.3301 29.9861 25.201 29.7564 24.9712C29.5266 24.7415 29.3975 24.4299 29.3975 24.105V24.0886ZM30.6226 26.1305C30.2977 26.1305 29.9861 26.2596 29.7564 26.4893C29.5266 26.7191 29.3975 27.0307 29.3975 27.3556V27.3719C29.3975 28.0482 29.9464 28.597 30.6226 28.597H30.639C30.9639 28.597 31.2755 28.468 31.5053 28.2382C31.735 28.0085 31.8641 27.6968 31.8641 27.3719V27.3556C31.8641 27.0307 31.735 26.7191 31.5053 26.4893C31.2755 26.2596 30.9639 26.1305 30.639 26.1305H30.6226Z" fill="white"/>
<path fill-rule="evenodd" clip-rule="evenodd" d="M17.1464 11.0209C17.4713 11.0209 17.7829 11.1499 18.0127 11.3797C18.2424 11.6095 18.3715 11.9211 18.3715 12.246V14.2878H29.8059V12.246C29.8059 11.9211 29.9349 11.6095 30.1647 11.3797C30.3944 11.1499 30.706 11.0209 31.031 11.0209C31.3559 11.0209 31.6675 11.1499 31.8972 11.3797C32.127 11.6095 32.2561 11.9211 32.2561 12.246V14.2878H32.6644C33.8558 14.2878 34.9984 14.7611 35.8408 15.6035C36.6832 16.4459 37.1565 17.5885 37.1565 18.7799V32.6644C37.1565 33.8558 36.6832 34.9984 35.8408 35.8408C34.9984 36.6832 33.8558 37.1565 32.6644 37.1565H15.5129C14.3216 37.1565 13.179 36.6832 12.3366 35.8408C11.4941 34.9984 11.0209 33.8558 11.0209 32.6644V18.7799C11.0209 17.5885 11.4941 16.4459 12.3366 15.6035C13.179 14.7611 14.3216 14.2878 15.5129 14.2878H15.9213V12.246C15.9213 11.9211 16.0504 11.6095 16.2801 11.3797C16.5099 11.1499 16.8215 11.0209 17.1464 11.0209ZM15.5129 20.005C14.3858 20.005 13.4711 20.9197 13.4711 22.0468V32.6644C13.4711 33.7915 14.3858 34.7063 15.5129 34.7063H32.6644C33.7915 34.7063 34.7063 33.7915 34.7063 32.6644V22.0468C34.7063 20.9197 33.7915 20.005 32.6644 20.005H15.5129Z" fill="white"/>
</svg>
