<svg width="24" height="24" viewBox="0 0 24 24" fill="none" xmlns="http://www.w3.org/2000/svg">
<circle cx="12" cy="12" r="12" fill="#FA9702"/>
<g clip-path="url(#clip0_379_5148)">
<path d="M12 20.1231C16.4863 20.1231 20.1231 16.4863 20.1231 12C20.1231 7.51375 16.4863 3.87692 12 3.87692C7.51378 3.87692 3.87695 7.51375 3.87695 12C3.87695 16.4863 7.51378 20.1231 12 20.1231Z" fill="white"/>
<path d="M12 18.318C15.4893 18.318 18.318 15.4893 18.318 12C18.318 8.51069 15.4893 5.68205 12 5.68205C8.51071 5.68205 5.68207 8.51069 5.68207 12C5.68207 15.4893 8.51071 18.318 12 18.318Z" fill="#FA9702"/>
<path d="M11.5488 12C11.5488 12.1197 11.5963 12.2345 11.6809 12.3191C11.7656 12.4037 11.8804 12.4513 12 12.4513C12.1197 12.4513 12.2345 12.4037 12.3192 12.3191C12.4038 12.2345 12.4513 12.1197 12.4513 12V7.0359C12.4513 6.91621 12.4038 6.80143 12.3192 6.7168C12.2345 6.63216 12.1197 6.58462 12 6.58462C11.8804 6.58462 11.7656 6.63216 11.6809 6.7168C11.5963 6.80143 11.5488 6.91621 11.5488 7.0359V12Z" fill="white"/>
<path d="M8.09196 14.2564C8.12147 14.3078 8.16082 14.3529 8.20778 14.389C8.25473 14.4252 8.30836 14.4517 8.36558 14.4671C8.42281 14.4825 8.48251 14.4864 8.54126 14.4787C8.60001 14.4709 8.65666 14.4517 8.70796 14.422L12.2257 12.3913C12.2774 12.3618 12.3228 12.3225 12.3593 12.2755C12.3958 12.2284 12.4226 12.1746 12.4382 12.1172C12.4538 12.0598 12.4578 11.9998 12.4502 11.9408C12.4425 11.8818 12.4232 11.8249 12.3935 11.7733C12.3637 11.7218 12.3241 11.6766 12.2768 11.6405C12.2295 11.6043 12.1755 11.5779 12.118 11.5627C12.0605 11.5475 12.0005 11.5438 11.9415 11.5518C11.8826 11.5599 11.8258 11.5795 11.7744 11.6096L8.25667 13.6404C8.20536 13.67 8.16039 13.7094 8.12433 13.7564C8.08827 13.8034 8.06184 13.857 8.04654 13.9142C8.03124 13.9715 8.02737 14.0311 8.03517 14.0899C8.04296 14.1486 8.06226 14.2052 8.09196 14.2564Z" fill="white"/>
</g>
<defs>
<clipPath id="clip0_379_5148">
<rect width="16.2462" height="16.2462" fill="white" transform="translate(3.87695 3.87692)"/>
</clipPath>
</defs>
</svg>
