<svg width="48" height="48" viewBox="0 0 48 48" fill="none" xmlns="http://www.w3.org/2000/svg">
<circle cx="24" cy="24" r="24" fill="#F3BE00"/>
<path d="M36.3738 22.7956V33.6173C36.3738 34.366 36.1072 35.0069 35.5741 35.5401C35.0409 36.0732 34.4 36.3398 33.6514 36.3398H14.5941C13.8454 36.3398 13.2045 36.0732 12.6714 35.5401C12.1382 35.0069 11.8717 34.366 11.8717 33.6173V22.7956C11.3499 22.3191 10.9472 21.7066 10.6636 20.9579C10.38 20.2092 10.3743 19.3925 10.6466 18.5077L12.0758 13.8795C12.2573 13.2896 12.5806 12.8019 13.0457 12.4162C13.5108 12.0305 14.0496 11.8376 14.6622 11.8376H33.5833C34.1958 11.8376 34.729 12.0248 35.1827 12.3992C35.6365 12.7735 35.9654 13.2669 36.1696 13.8795L37.5989 18.5077C37.8712 19.3925 37.8655 20.1979 37.5819 20.9239C37.2983 21.6499 36.8956 22.2737 36.3738 22.7956ZM27.1174 21.3663C27.73 21.3663 28.1951 21.1564 28.5127 20.7367C28.8303 20.317 28.9551 19.8462 28.887 19.3244L28.1384 14.5601H25.484V19.5967C25.484 20.0731 25.6428 20.4871 25.9604 20.8388C26.278 21.1904 26.6637 21.3663 27.1174 21.3663ZM20.9919 21.3663C21.5137 21.3663 21.9391 21.1904 22.2681 20.8388C22.597 20.4871 22.7615 20.0731 22.7615 19.5967V14.5601H20.1071L19.3584 19.3244C19.2677 19.8689 19.3868 20.3453 19.7158 20.7537C20.0447 21.1621 20.4701 21.3663 20.9919 21.3663ZM14.9344 21.3663C15.3428 21.3663 15.7001 21.2188 16.0064 20.9239C16.3127 20.6289 16.4998 20.2546 16.5679 19.8008L17.3166 14.5601H14.6622L13.301 19.1202C13.1648 19.574 13.2386 20.0617 13.5222 20.5836C13.8057 21.1054 14.2765 21.3663 14.9344 21.3663ZM33.311 21.3663C33.969 21.3663 34.4454 21.1054 34.7403 20.5836C35.0353 20.0617 35.1033 19.574 34.9445 19.1202L33.5152 14.5601H30.9289L31.6776 19.8008C31.7456 20.2546 31.9328 20.6289 32.2391 20.9239C32.5454 21.2188 32.9027 21.3663 33.311 21.3663ZM14.5941 33.6173H33.6514V24.0207C33.5379 24.066 33.4642 24.0887 33.4302 24.0887H33.311C32.6985 24.0887 32.1597 23.9866 31.6946 23.7824C31.2295 23.5783 30.7701 23.2493 30.3163 22.7956C29.908 23.2039 29.4429 23.5215 28.9211 23.7484C28.3993 23.9753 27.8434 24.0887 27.2536 24.0887C26.641 24.0887 26.0682 23.9753 25.535 23.7484C25.0019 23.5215 24.5311 23.2039 24.1227 22.7956C23.7371 23.2039 23.289 23.5215 22.7785 23.7484C22.2681 23.9753 21.7179 24.0887 21.128 24.0887C20.4701 24.0887 19.8746 23.9753 19.3414 23.7484C18.8083 23.5215 18.3375 23.2039 17.9291 22.7956C17.4527 23.272 16.9819 23.6066 16.5169 23.7995C16.0518 23.9923 15.5243 24.0887 14.9344 24.0887H14.7813C14.7246 24.0887 14.6622 24.066 14.5941 24.0207V33.6173Z" fill="white"/>
</svg>
