<svg width="48" height="48" viewBox="0 0 48 48" fill="none" xmlns="http://www.w3.org/2000/svg">
<circle cx="24" cy="24" r="24" fill="#F3BE00"/>
<g clip-path="url(#clip0_381_5702)">
<path d="M39.7254 33.2246L36.6626 34.2455C36.4295 34.3235 36.1762 34.3148 35.949 34.2211C35.7219 34.1273 35.5362 33.9547 35.426 33.7351L31.6243 26.1305H21.0259C20.7551 26.1305 20.4954 26.0229 20.304 25.8314C20.1125 25.64 20.005 25.3803 20.005 25.1095V21.3245C18.3605 21.8154 16.9476 22.8817 16.0245 24.3285C15.1015 25.7753 14.7298 27.5059 14.9776 29.2041C15.2254 30.9023 16.076 32.4546 17.374 33.5773C18.672 34.7001 20.3306 35.3182 22.0468 35.3188C25.3533 35.3188 28.4391 33.0153 29.2252 29.9589C29.2587 29.829 29.3175 29.707 29.3981 29.5999C29.4788 29.4927 29.5798 29.4025 29.6953 29.3343C29.8109 29.2662 29.9387 29.2215 30.0715 29.2028C30.2043 29.184 30.3395 29.1916 30.4694 29.2251C30.5993 29.2587 30.7213 29.3174 30.8285 29.3981C30.9356 29.4788 31.0259 29.5798 31.094 29.6953C31.1621 29.8108 31.2069 29.9387 31.2256 30.0715C31.2443 30.2043 31.2367 30.3395 31.2032 30.4694C30.1746 34.4638 26.3245 37.3606 22.0468 37.3606C19.7887 37.3593 17.6102 36.5265 15.9271 35.0213C14.244 33.516 13.174 31.4436 12.9215 29.1997C12.669 26.9559 13.2517 24.6976 14.5582 22.8559C15.8647 21.0142 17.8037 19.7181 20.005 19.215V16.7903C19.1824 16.5451 18.4757 16.012 18.0139 15.2885C17.5521 14.565 17.3662 13.6995 17.4901 12.8502C17.614 12.0008 18.0395 11.2245 18.6887 10.6631C19.338 10.1017 20.1676 9.79279 21.0259 9.79279C21.8842 9.79279 22.7138 10.1017 23.363 10.6631C24.0123 11.2245 24.4378 12.0008 24.5617 12.8502C24.6856 13.6995 24.4996 14.565 24.0379 15.2885C23.5761 16.012 22.8693 16.5451 22.0468 16.7903V18.984H29.1933C29.464 18.984 29.7237 19.0916 29.9152 19.283C30.1066 19.4745 30.2142 19.7342 30.2142 20.0049C30.2142 20.2757 30.1066 20.5354 29.9152 20.7268C29.7237 20.9183 29.464 21.0259 29.1933 21.0259H22.0468V24.0886H32.256C32.4455 24.0887 32.6312 24.1415 32.7923 24.2412C32.9535 24.3408 33.0837 24.4833 33.1685 24.6527L36.8566 32.0289L39.0796 31.2874C39.3365 31.2018 39.6169 31.2217 39.8591 31.3428C40.1013 31.4639 40.2855 31.6763 40.3711 31.9331C40.4567 32.19 40.4368 32.4704 40.3157 32.7126C40.1946 32.9548 39.9822 33.139 39.7254 33.2246Z" fill="white"/>
</g>
<defs>
<clipPath id="clip0_381_5702">
<rect width="32.6695" height="32.6695" fill="white" transform="translate(7.75391 7.75385)"/>
</clipPath>
</defs>
</svg>
