<svg width="48" height="48" viewBox="0 0 48 48" fill="none" xmlns="http://www.w3.org/2000/svg">
<circle cx="24" cy="24" r="24" fill="#F3BE00"/>
<g clip-path="url(#clip0_381_5693)">
<path d="M34.2819 15.9213C35.1221 15.9213 35.9144 16.0808 36.6588 16.3998C37.4032 16.7189 38.0519 17.1549 38.6049 17.7079C39.1579 18.2609 39.5992 18.9149 39.9289 19.67C40.2586 20.425 40.4181 21.2173 40.4075 22.0468C40.4075 22.8976 40.248 23.6899 39.9289 24.4236C39.6099 25.1574 39.1739 25.8061 38.6209 26.3698C38.0679 26.9334 37.4138 27.3747 36.6588 27.6938C35.9037 28.0128 35.1114 28.1723 34.2819 28.1723H32.6389C32.171 28.9912 31.6127 29.7463 30.9639 30.4375C30.3152 31.1288 29.5974 31.7349 28.8104 32.256H33.261C33.5375 32.256 33.7768 32.3571 33.9789 32.5591C34.1809 32.7612 34.2819 33.0005 34.2819 33.277C34.2819 33.5535 34.1809 33.7927 33.9789 33.9948C33.7768 34.1969 33.5375 34.2979 33.261 34.2979H10.8007C10.5242 34.2979 10.2849 34.1969 10.0829 33.9948C9.88081 33.7927 9.77979 33.5535 9.77979 33.277C9.77979 33.0005 9.88081 32.7612 10.0829 32.5591C10.2849 32.3571 10.5242 32.256 10.8007 32.256H15.2513C14.3899 31.6818 13.6242 31.0224 12.9542 30.278C12.2842 29.5336 11.71 28.7253 11.2314 27.8533C10.7529 26.9813 10.3966 26.0507 10.1626 25.0617C9.92867 24.0727 9.80105 23.0677 9.77979 22.0468V15.9213H34.2819ZM22.0309 32.256C22.9667 32.256 23.8707 32.1337 24.7427 31.8891C25.6147 31.6445 26.4283 31.3042 27.1833 30.8682C27.9384 30.4322 28.6243 29.9005 29.2411 29.273C29.8579 28.6456 30.3897 27.9543 30.8363 27.1993C31.283 26.4442 31.6286 25.6307 31.8732 24.7586C32.1178 23.8866 32.2401 22.9826 32.2401 22.0468V17.9631H11.8216V22.0468C11.8216 22.9826 11.9439 23.8866 12.1885 24.7586C12.4331 25.6307 12.7734 26.4442 13.2094 27.1993C13.6455 27.9543 14.1772 28.6403 14.8046 29.2571C15.4321 29.8739 16.1233 30.4056 16.8784 30.8523C17.6334 31.2989 18.447 31.6445 19.319 31.8891C20.1911 32.1337 21.095 32.256 22.0309 32.256ZM34.2819 26.1305C34.8456 26.1305 35.372 26.0241 35.8612 25.8115C36.3504 25.5988 36.7864 25.3063 37.1692 24.9341C37.5521 24.5619 37.8445 24.1312 38.0466 23.642C38.2487 23.1528 38.355 22.6211 38.3656 22.0468C38.3656 21.4832 38.2593 20.9568 38.0466 20.4676C37.8339 19.9784 37.5415 19.5424 37.1692 19.1595C36.797 18.7767 36.3663 18.4842 35.8771 18.2821C35.3879 18.0801 34.8562 17.9737 34.2819 17.9631C34.2819 18.6544 34.2873 19.3456 34.2979 20.0369C34.3085 20.7281 34.3032 21.414 34.2819 22.0947C34.2607 22.7753 34.1969 23.4506 34.0905 24.1206C33.9842 24.7905 33.814 25.4605 33.5801 26.1305H34.2819Z" fill="white"/>
</g>
<defs>
<clipPath id="clip0_381_5693">
<rect width="32.6695" height="32.6695" fill="white" transform="translate(7.75391 7.75391)"/>
</clipPath>
</defs>
</svg>
