<svg width="48" height="48" viewBox="0 0 48 48" fill="none" xmlns="http://www.w3.org/2000/svg">
<circle cx="24" cy="24" r="24" fill="#329808"/>
<path d="M30.3076 32.8602H29.7041L30.1308 33.2869L32.0995 35.2556V35.5826H29.7306L27.0813 32.9334L27.0081 32.8602H26.9045H21.4596H21.3561L21.2828 32.9334L18.6336 35.5826H16.2647V35.2556L18.2333 33.2869L18.6601 32.8602H18.0565C16.7821 32.8602 15.7177 32.4255 14.8473 31.5551C13.9769 30.6847 13.5422 29.6203 13.5422 28.3459V15.4142C13.5422 14.2555 13.842 13.3609 14.4164 12.703C15.0089 12.0244 15.7941 11.5018 16.7814 11.1398C17.7786 10.7741 18.9198 10.5284 20.2073 10.4053C21.5036 10.2813 22.8285 10.2192 24.1821 10.2192C25.6726 10.2192 27.077 10.2813 28.3955 10.4053C29.7059 10.5285 30.8401 10.7742 31.8014 11.1388C32.7529 11.4997 33.4903 12.0198 34.0253 12.694C34.5477 13.3521 34.8219 14.2502 34.8219 15.4142V28.3459C34.8219 29.6203 34.3873 30.6847 33.5169 31.5551C32.6465 32.4255 31.5821 32.8602 30.3076 32.8602ZM16.4672 13.8609L15.9367 14.3029H16.6273H31.873H32.427L32.0605 13.8875C31.8569 13.6567 31.5525 13.4615 31.1701 13.2925C30.7852 13.1225 30.3053 12.9721 29.7346 12.8395C28.5816 12.5717 26.7249 12.4417 24.1821 12.4417C21.774 12.4417 19.9893 12.5831 18.8455 12.8748C17.7302 13.1594 16.9219 13.482 16.4672 13.8609ZM15.7647 20.8591V21.1091H16.0147H22.8209H23.0709V20.8591V16.7754V16.5254H22.8209H16.0147H15.7647V16.7754V20.8591ZM16.0147 23.3315H15.7647V23.5815V28.3459C15.7647 28.9961 15.9798 29.5493 16.4164 29.986C16.8531 30.4226 17.4063 30.6377 18.0565 30.6377H30.3076C30.9578 30.6377 31.5111 30.4226 31.9477 29.986C32.3843 29.5493 32.5995 28.9961 32.5995 28.3459V23.5815V23.3315H32.3495H16.0147ZM25.2933 20.8591V21.1091H25.5433H32.3495H32.5995V20.8591V16.7754V16.5254H32.3495H25.5433H25.2933V16.7754V20.8591ZM20.7043 28.2712C20.3696 28.6059 19.9473 28.7765 19.4178 28.7765C18.8882 28.7765 18.466 28.6059 18.1312 28.2712C17.7965 27.9364 17.6259 27.5141 17.6259 26.9846C17.6259 26.4551 17.7965 26.0328 18.1312 25.6981C18.466 25.3633 18.8882 25.1928 19.4178 25.1928C19.9473 25.1928 20.3696 25.3633 20.7043 25.6981C21.0391 26.0328 21.2096 26.4551 21.2096 26.9846C21.2096 27.5141 21.0391 27.9364 20.7043 28.2712ZM30.2329 28.2712C29.8982 28.6059 29.4759 28.7765 28.9464 28.7765C28.4169 28.7765 27.9946 28.6059 27.6598 28.2712C27.3251 27.9364 27.1545 27.5141 27.1545 26.9846C27.1545 26.4551 27.3251 26.0328 27.6598 25.6981C27.9946 25.3633 28.4169 25.1928 28.9464 25.1928C29.4759 25.1928 29.8982 25.3633 30.2329 25.6981C30.5677 26.0328 30.7382 26.4551 30.7382 26.9846C30.7382 27.5141 30.5677 27.9364 30.2329 28.2712Z" fill="white" stroke="#329808" stroke-width="0.5"/>
</svg>
